<svg id="Layer_1" data-name="Layer 1" xmlns="http://www.w3.org/2000/svg" viewBox="0 0 342.34 112.3"><defs><style>.cls-1{fill:#4c73ab;}.cls-2{fill:#fff;}</style></defs><title>навилайн_логотип</title><path class="cls-1" d="M138.83,190.9h9.93v16.3h5.73V190.9h9.93V234h-9.93V215.52h-5.73V234h-9.93Z" transform="translate(-41.43 -156.45)"/><path class="cls-1" d="M184.94,226.37h-7L177,234H167l8-43.14h13.17l8.1,43.14H185.86Zm-3.29-28.78h-.11L179,218.71h5Z" transform="translate(-41.43 -156.45)"/><path class="cls-1" d="M198.87,190.9h13.77c7.24,0,10.75,2.75,10.75,10.15,0,4.53-.65,8.53-5.45,10.15v.11c4.86.86,6.53,4.48,6.53,9.93,0,7.24-2.65,12.8-11.5,12.8h-14.1ZM208.81,208h2.05c2.59,0,3.24-2.32,3.24-5,0-3-.65-4.7-3.13-4.7h-2.16Zm0,18.74h2.27c2.86,0,3.45-1.62,3.45-5.89,0-3.51-.59-5.83-3.45-5.83h-2.27Z" transform="translate(-41.43 -156.45)"/><path class="cls-1" d="M247.85,207.69h-.1L239.7,234H228.9V190.9h9.61v25.75h.11l7.94-25.75h10.9V234h-9.61Z" transform="translate(-41.43 -156.45)"/><path class="cls-1" d="M280.79,199.21h-5.72v21.12c0,9.93-3.3,14.41-8.91,14.41a21.32,21.32,0,0,1-5.73-.7V225.4a4.22,4.22,0,0,0,1.84.54c1.62,0,2.86-.75,2.86-8.1V190.9h25.6V234h-9.94Z" transform="translate(-41.43 -156.45)"/><path class="cls-1" d="M311.25,226.37h-7l-1,7.67h-9.94l8-43.14h13.18l8.1,43.14H312.17ZM308,197.59h-.1l-2.54,21.12h5Z" transform="translate(-41.43 -156.45)"/><path class="cls-1" d="M344.13,207.69H344L336,234h-10.8V190.9h9.61v25.75h.11l7.94-25.75h10.91V234h-9.62Zm-8.64-27.16c.06,2.43,1.73,3.34,4,3.34,2.43,0,3.67-.86,4-3.34h4.1c0,5.07-3.46,7.45-8.1,7.45-5,0-8.1-2.32-8.1-7.45Z" transform="translate(-41.43 -156.45)"/><path class="cls-1" d="M358.17,190.9h9.94v16.3h5.72V190.9h9.94V234h-9.94V215.52h-5.72V234h-9.94Z" transform="translate(-41.43 -156.45)"/><path class="cls-1" d="M253.59,241.7h6.24v2.46h-3.29v10.33h-3Z" transform="translate(-41.43 -156.45)"/><path class="cls-1" d="M260.7,241.7h3.15c3.23,0,4.56.54,4.56,3.86,0,1.9-.56,3.85-3.23,3.85h-1.54v5.08H260.7Zm3.68,5.44c.77,0,1.09-.46,1.09-1.58s-.32-1.59-1.09-1.59h-.74v3.17Z" transform="translate(-41.43 -156.45)"/><path class="cls-1" d="M276.94,241.7l-2.4,10.13a3.79,3.79,0,0,1-1.09,2.21,2.71,2.71,0,0,1-1.76.54,10.81,10.81,0,0,1-1.94-.2v-2.47a4.49,4.49,0,0,0,.87.11c.27,0,.51-.09.51-.48a2.53,2.53,0,0,0-.1-.59l-2.09-9.25h3l.94,7.17h0l.95-7.17Z" transform="translate(-41.43 -156.45)"/><path class="cls-1" d="M282.23,244.16h-1.69v10.33h-3V241.7h7.59v12.79h-2.95Z" transform="translate(-41.43 -156.45)"/><path class="cls-1" d="M291.13,244.16h-1.7v10.33h-2.94V241.7h7.59v12.79h-2.95Z" transform="translate(-41.43 -156.45)"/><path class="cls-1" d="M300.15,252.21h-2.06l-.3,2.28h-3l2.37-12.79h3.9l2.4,12.79h-3.08Zm-1-8.53h0l-.76,6.26h1.48Z" transform="translate(-41.43 -156.45)"/><path class="cls-1" d="M308.28,241.7h2.85v5.23h.05l1.95-5.23h3.14L313.8,247l2.47,7.49h-3.14l-1.31-4.58-.69,1.06v3.52h-2.85Z" transform="translate(-41.43 -156.45)"/><path class="cls-1" d="M317.18,245.19a3.79,3.79,0,0,1,7.58,0V251a3.79,3.79,0,0,1-7.58,0Zm4.64-.26c0-.43,0-1.17-.85-1.17s-.85.74-.85,1.17v6.32c0,.34,0,1.17.85,1.17s.85-.83.85-1.17Z" transform="translate(-41.43 -156.45)"/><path class="cls-1" d="M326.15,241.7h4.5l.93,6.34h0l.94-6.34h4.58v12.79h-2.85v-9.94h0l-1.73,9.94h-1.9L329,244.55h0v9.94h-2.85Z" transform="translate(-41.43 -156.45)"/><path class="cls-1" d="M343.16,244.16h-1.69v10.33h-3V241.7h7.59v12.79h-2.95Z" transform="translate(-41.43 -156.45)"/><path class="cls-1" d="M352.18,252.21h-2.06l-.3,2.28h-2.95l2.37-12.79h3.91l2.4,12.79h-3.09Zm-1-8.53h0l-.76,6.26h1.48Z" transform="translate(-41.43 -156.45)"/><path class="cls-1" d="M356.31,241.7h2.95v4.83H361V241.7h2.95v12.79H361V249h-1.69v5.49h-2.95Z" transform="translate(-41.43 -156.45)"/><path class="cls-1" d="M370.83,246.68h0l-2.38,7.81h-3.2V241.7h2.85v7.63h0l2.35-7.63h3.24v12.79h-2.85Z" transform="translate(-41.43 -156.45)"/><path class="cls-1" d="M380.6,246.68h0l-2.39,7.81H375V241.7h2.85v7.63h0l2.36-7.63h3.23v12.79H380.6ZM378,238.63c0,.72.51,1,1.19,1s1.08-.26,1.18-1h1.22a2.12,2.12,0,0,1-2.4,2.2c-1.49,0-2.4-.68-2.4-2.2Z" transform="translate(-41.43 -156.45)"/><path class="cls-1" d="M63.47,226.25c-.46-.73-.89-1.48-1.28-2.26A12.48,12.48,0,0,1,59,222.07c-5.32-4.41-3.92-10.31-3.05-12.68a4.86,4.86,0,0,1-2.45,1.87,4.66,4.66,0,0,1-1.61.28,5.34,5.34,0,0,1-1-.11l1.53,2.16-2.22,3.7v0l-1.31,2.18c.26.33.54.66.83,1C52.89,223.79,57.84,225.87,63.47,226.25Z" transform="translate(-41.43 -156.45)"/><path class="cls-1" d="M51.85,201.34a5.26,5.26,0,0,1,2.27.51l.48-.75L52.44,198l-1.72,2,1,1.26Z" transform="translate(-41.43 -156.45)"/><path class="cls-1" d="M54.84,202.26a5.29,5.29,0,0,1,2,2.64,5.38,5.38,0,0,1,.25,1.07l.52-.88-2.5-3.29Z" transform="translate(-41.43 -156.45)"/><polygon class="cls-1" points="14.14 44.69 16.64 47.96 18.01 45.67 15.65 42.35 14.14 44.69"/><polygon class="cls-1" points="15.12 41.59 13.3 38.96 11.54 41.03 13.61 43.96 15.12 41.59"/><path class="cls-1" d="M47.75,205a4.6,4.6,0,0,0-.26,1.11l1.83,2.64h0l1.5,2.11a4.25,4.25,0,0,0,2.47-.11,4.38,4.38,0,0,0,2.65-2.54l0,0A4.4,4.4,0,0,0,47.75,205Z" transform="translate(-41.43 -156.45)"/><polygon class="cls-1" points="4.69 55.95 2.12 52.26 0 54.76 2.95 58.63 4.69 55.95"/><polygon class="cls-1" points="8.27 60.64 5.26 56.69 3.56 59.41 6.6 63.41 8.27 60.64"/><polygon class="cls-1" points="7.55 53.17 5.72 56.01 8.71 59.94 10.38 57.16 7.55 53.17"/><polygon class="cls-1" points="5.15 55.23 6.98 52.36 4.78 49.19 2.65 51.7 5.15 55.23"/><path class="cls-1" d="M114.92,215a4.92,4.92,0,0,1,2.58-.16L116,212.72l2.22-3.7v0l1.31-2.18c-.26-.33-.54-.66-.83-1-3.2-3.37-8.14-5.45-13.78-5.83a25,25,0,0,1,1.28,2.25,12.36,12.36,0,0,1,3.23,1.93c5.33,4.41,3.93,10.31,3.06,12.68A4.94,4.94,0,0,1,114.92,215Z" transform="translate(-41.43 -156.45)"/><path class="cls-1" d="M114.26,224.46l-.48.75,2.16,3.06,1.72-2-1-1.26A5.32,5.32,0,0,1,114.26,224.46Z" transform="translate(-41.43 -156.45)"/><path class="cls-1" d="M113.54,224.05a5.29,5.29,0,0,1-2-2.64,5.55,5.55,0,0,1-.25-1.07l-.52.88,2.5,3.29Z" transform="translate(-41.43 -156.45)"/><polygon class="cls-1" points="71.38 68.72 68.88 65.45 67.51 67.74 69.86 71.06 71.38 68.72"/><polygon class="cls-1" points="70.39 71.82 72.22 74.45 73.98 72.37 71.91 69.45 70.39 71.82"/><path class="cls-1" d="M120.63,221.27a4.6,4.6,0,0,0,.26-1.11l-1.82-2.62h0l-1.51-2.13a4.46,4.46,0,0,0-1-.12,4.4,4.4,0,0,0-4.11,2.81,4.4,4.4,0,1,0,8.21,3.18Z" transform="translate(-41.43 -156.45)"/><polygon class="cls-1" points="85.52 58.65 82.57 54.77 80.83 57.45 83.4 61.15 85.52 58.65"/><polygon class="cls-1" points="77.25 52.77 80.26 56.72 81.96 54 78.92 50 77.25 52.77"/><polygon class="cls-1" points="77.97 60.23 79.8 57.4 76.81 53.47 75.14 56.25 77.97 60.23"/><polygon class="cls-1" points="80.37 58.18 78.54 61.05 80.74 64.22 82.87 61.71 80.37 58.18"/><path class="cls-1" d="M100.31,231.63A16,16,0,0,1,97,243.78a12.5,12.5,0,0,1-6.12,4.15l-1.71,3.52-2.9-.7a6.5,6.5,0,0,1,.33,1.6,6.74,6.74,0,0,1-2,5.34,6.33,6.33,0,0,1-1.25,1l1.87.36-.26.54a18.17,18.17,0,0,0,11.75-6.62c4.41-5.48,6.24-14.15,4.81-22.43C101.13,230.9,100.73,231.27,100.31,231.63Z" transform="translate(-41.43 -156.45)"/><path class="cls-1" d="M68,194.72a16.25,16.25,0,0,1,3.27-12.83,13.31,13.31,0,0,1,3.82-3.2l.17-.33h-.06l2.22-4.6,2.91.7a7,7,0,0,1-.34-1.59,6.79,6.79,0,0,1,2-5.35,6.33,6.33,0,0,1,1.25-1l-1.15-.22a18.11,18.11,0,0,0-10.55,6.41c-4.53,5.62-6.33,14.62-4.68,23.09C67.2,195.44,67.59,195.07,68,194.72Z" transform="translate(-41.43 -156.45)"/><path class="cls-1" d="M81.28,178.93l.7-1.08a7.38,7.38,0,0,1-2-2.84l-2.18-.52-1.65,3.4Z" transform="translate(-41.43 -156.45)"/><path class="cls-1" d="M87.34,179.59a7.16,7.16,0,0,1-4.48-1.09l-.47.69L88,180.54l.9-1.26A7.3,7.3,0,0,1,87.34,179.59Z" transform="translate(-41.43 -156.45)"/><polygon class="cls-1" points="40.41 23.61 38.24 26.91 43.85 28.05 46.03 24.96 40.41 23.61"/><polygon class="cls-1" points="34.3 22.36 32.62 25.82 37.05 26.68 39.25 23.36 34.3 22.36"/><path class="cls-1" d="M92.86,171.79a6.12,6.12,0,0,0-1.26-3.24l-4-.81L83.67,167a5.91,5.91,0,0,0-1.28,1,6.14,6.14,0,0,0,4.85,10.46,6.17,6.17,0,0,0,5.62-6.63Z" transform="translate(-41.43 -156.45)"/><polygon class="cls-1" points="44.48 4.42 49.43 5.37 51.9 1.59 45.25 0 43.23 4.16 44.48 4.42"/><polygon class="cls-1" points="57.38 7.27 60.02 3.54 53.15 1.91 50.61 5.66 57.38 7.27"/><polygon class="cls-1" points="50.05 6.56 47.44 10.54 54.15 11.91 56.79 8.17 50.05 6.56"/><polygon class="cls-1" points="46.15 10.29 48.81 6.29 42.86 5.08 40.82 9.27 46.15 10.29"/><path class="cls-1" d="M84.19,189.79h-.41a23.36,23.36,0,0,0-23,23.76,23.36,23.36,0,1,0,23.36-23.77Z" transform="translate(-41.43 -156.45)"/><path class="cls-1" d="M84.55,247.35a7.3,7.3,0,0,1,2,2.84l2.18.52,1.64-3.4-5.16-1Z" transform="translate(-41.43 -156.45)"/><path class="cls-1" d="M79.8,245.58a7.3,7.3,0,0,1,3.88,1.12l.46-.69-5.65-1.35-.89,1.26a7.19,7.19,0,0,1,1.6-.31Q79.5,245.58,79.8,245.58Z" transform="translate(-41.43 -156.45)"/><polygon class="cls-1" points="43.27 88.68 45.43 85.39 39.82 84.25 37.64 87.34 43.27 88.68"/><polygon class="cls-1" points="49.38 89.94 51.06 86.48 46.62 85.62 44.42 88.94 49.38 89.94"/><path class="cls-1" d="M73.68,253.41a6,6,0,0,0,1.26,3.24l3.65.74.34.07,3.94.75a5.85,5.85,0,0,0,1.27-1,6.14,6.14,0,0,0-8.65-8.71l0,0A6.13,6.13,0,0,0,73.68,253.41Z" transform="translate(-41.43 -156.45)"/><polygon class="cls-1" points="39.19 107.89 34.24 106.93 31.78 110.71 38.43 112.3 40.45 108.14 39.19 107.89"/><polygon class="cls-1" points="26.29 105.03 23.66 108.76 30.52 110.39 33.06 106.64 26.29 105.03"/><polygon class="cls-1" points="33.63 105.73 36.24 101.76 29.52 100.39 26.89 104.13 33.63 105.73"/><polygon class="cls-1" points="42.85 103.03 37.52 102.01 34.87 106.01 40.82 107.21 42.85 103.03"/><path class="cls-2" d="M80.34,195.29c.21,0,0,0,0,0Zm1.74,2.31c-.06,0-.23.17-.28.16s-.08.05-.09.05-.12.11-.07.17a.17.17,0,0,0,.12,0h0l.21.18c.08,0,.49-.41.39-.41h0s0-.25,0-.24S82.17,197.6,82.08,197.6Zm.07.25,0,0h0S82.13,197.86,82.15,197.85Zm.38-.29h0s-.06,0-.08,0a.56.56,0,0,1,0,.12h0C82.54,197.71,82.57,197.66,82.53,197.56Zm2,.13s-.07.07-.09.1a.77.77,0,0,0-.1.33c0,.12.07.17.16.17a.86.86,0,0,0,.6.18h0l.07-.11C85.14,198.09,84.71,197.81,84.5,197.69Zm.64.67Zm-2.56-.61c-.06,0-.23.07-.23.17S82.77,197.79,82.58,197.75Zm-1-.1h0s0-.05,0-.06c-.21,0-.33.3-.2.3s.19.09.25-.07a.17.17,0,0,1,.15-.08C81.9,197.37,81.64,197.72,81.57,197.65Zm-1.28-.38s.06-.06,0-.08h0v-.05c0-.07,0-.12-.07-.06s.06,0,.06-.07l-.13,0c0-.07.07-.17-.08-.13a1.23,1.23,0,0,0-.34,0,.19.19,0,0,0,0-.14s0,0,0,0h0s0,0-.07,0c-.2,0-1.26.69-1.1.89s1-.54.71-.09h0s-.21,0-.19.1h0c.13,0,.12.07,0,.12a.31.31,0,0,0,.36-.14h0c.05-.11.23-.38.33-.32s0,.06,0,.11l.09,0h0A.64.64,0,0,0,80.29,197.27Zm5.35,1.15c-.71-.78-.39.27-.37.27A1.31,1.31,0,0,0,85.64,198.42Zm-1.75-5.65a.28.28,0,0,0-.13,0h-.13a.33.33,0,0,0,.35.33c.13,0,.19,0,.13-.15S83.82,192.77,83.89,192.77Zm1.82,5.66c.09.09.25,0,.15,0S85.63,198.3,85.71,198.43Zm-7-3s-.07.22,0,0Zm7.21-2.74c-.05-.09-.09.09-.1,0h-.07c-.07-.07-.08-.06-.21-.08-.18.2-.12-.05-.13-.13h-.09c-.12-.07-1.21-.29-.89.1s.21.11.32,0a.33.33,0,0,1,.27.17h0a.16.16,0,0,0-.1.1c.1,0,.2,0,.3-.07-.38.25,0,.12.06.19h.15S86,192.74,85.93,192.71Zm-.71-.25h0s.06,0,0,0Zm.3.24s-.11.07,0,0h0C85.53,192.68,85.55,192.68,85.52,192.7Zm.08,0h0l0,0S85.61,192.68,85.6,192.68ZM80.35,201h0a6.33,6.33,0,0,1,.89-1.23c0-.1,1.65-.63,1.12-.75h0a1.27,1.27,0,0,1-.66.12s-.07,0-.11,0a1.46,1.46,0,0,0-.44.19c-.28.18-.54.48-.83.64-.34.48-.13.53-.19.93C80.23,201,80.26,201,80.35,201ZM85.17,199Zm3.54-1.52c-.18.19-.17,0-.34.17a.47.47,0,0,0,.46.39.37.37,0,0,0,.18,0c0-.13,0-.16.11-.22h0C89.15,197.5,89,197.4,88.71,197.46Zm.73-.05h0c0-.12-.12-.35-.18-.23l-.2.11,0,0h0a0,0,0,0,1,0,0c-.12,0-.25,0,.1.13A.54.54,0,0,0,89.44,197.41Zm-.31.06Zm.35.73c.06,0,.34-.15.2-.24s-.28-.13-.38,0h0C88.83,198,89.48,198.05,89.48,198.2Zm-10.5,3c.11.09.58,0,.33-.19,0,0,0,0,0,0s-.09,0-.18,0C79.46,199.49,79,201.18,79,201.18Zm-4.32-5.41c-.13,0-.9,0-1,.38a3.73,3.73,0,0,0-.28.38c.31.72,1.19-.06,1-.13a1.14,1.14,0,0,1,.07-.32C74.26,196,74.51,195.91,74.66,195.77ZM97,196.2s.09,0,0,0,0,0,0,0h0v0h0s-.18-.16-.14-.08C97,196.34,97,196.25,97,196.2Zm.23.3h0a1,1,0,0,0,.27.36A.64.64,0,0,0,97.23,196.5Zm.43.85h0l0-.07C97.66,197.38,97.69,197.44,97.66,197.35Zm-.25-.42a1.86,1.86,0,0,0,.19.34h0C97.53,197.1,97.41,196.81,97.41,196.93Zm-23-3.87a.46.46,0,0,0,.14-.07Zm25,13.73,0,0S99.45,206.84,99.38,206.79Zm-1.21-1.36s0,0,.12.17h0c0,.71.81,1.55,1,2.29h0c.12.06,0,.05-.11,0l.13.21a.63.63,0,0,1-.06.38.87.87,0,0,0-.07-.17c-.12-.05-.07.86-.07.92a2.82,2.82,0,0,1-.21.31c-.24.27-.26,1.26-.5,1.26h0a1.13,1.13,0,0,0,0,.68c.14,0,.12-.19.16-.25.21.08.3.6.61.43s0-.71,0-.87h0a4.38,4.38,0,0,0,.46-.78c.12-.21.22-.84.45-.94h0a3,3,0,0,0-.64-2.26c-.08-.05-.4-.28-.4-.34s-.24-.47-.18-.4a6.13,6.13,0,0,0,.27-1c0-.11,0-.29-.1-.34a.15.15,0,0,0-.05.16c0-.16-.1-.35-.21-.23,0,.87-.39.13-.79.39C97.93,205.27,98,205.3,98.17,205.43Zm1,2.48s0,0,0,0S99.15,207.9,99.2,207.91Zm-31.85-2.22h0c.11-.18.58-.74.51-.81h0c-.3.11-.13.1-.52.45-.08,0,0-.09,0-.13a.56.56,0,0,0-.21.27c-.13.11-.4.42-.32.6C67.06,206.15,67.15,205.92,67.35,205.69Zm.55-.7h0s0,0,0,.06A.1.1,0,0,0,67.9,205ZM97.58,216.2s.26.44.39.36,0-.43,0-.53C97.8,214.28,97.58,215.52,97.58,216.2Zm0,0Zm2.28,2.9c.08,0-.65-.23-.7-.24h0c-.42.12-.52-2.83-1-.22,0,.15.17.39.17.51a.23.23,0,0,0,.08.12h0s.31.94.6.75a3.45,3.45,0,0,0,0-.52h0a.18.18,0,0,0,.17-.11s.49.09.28.39c-.24.09-.2,0-.17,0h0c.27-.32,0-.18-.1-.28,0,.11-.18,1.06.12.89.09.45.59.13.89-.36.3.44-1.3.93-.8,1.6.15,0,.27-.28.26-.27.13-.15.19-.12.27-.3.09,0,.11.81.55.37.06-.09.07-.5,0-.48s.05.12.13.11.21-1-.06-1-.13-.48-.36-.31C100.21,219.73,100.36,218.75,99.86,219.1Zm-.91.23c.14,0-.09.25,0,0Zm.75.56c-.11,0-.21-.29,0-.26h0C99.91,219.68,99.78,219.54,99.7,219.89Zm.1-.37s0,0,0,0,0-.1.07,0S99.84,219.51,99.8,219.52Zm.11.43.06,0C100,220,99.88,220,99.91,220Zm-11.25,3.7c.5.3.45-.53.39-.88C88.91,222.69,88.66,223.58,88.66,223.65Zm10-3.38c.06-.18,0-.3-.17-.23h0c0,.31-.56,1.3-.56,1.55,0,.1-.14.21-.07.41S98.92,220.27,98.7,220.27ZM88.8,224c.12,0,.22-.06.12-.22C88.83,223.82,88.62,223.9,88.8,224Zm-4.44,1.16h0c-.94-1.38-1.12.55-.4.89.62,0,.71-.41.4-.89Zm5.06-.42c0-.17-.09-.07-.2-.06s-.09,0,0,.07S89.42,224.92,89.42,224.78Zm9-2.25c-.7-.57-.47.07-1,.67A7.84,7.84,0,0,1,96,225c-.3.38-.65-.1-.75.67,0,.09.13.6.21.56s.24.39.34.53a.47.47,0,0,1,.53-.07,2.71,2.71,0,0,1,.85-.38c0,.17.07.16.16.12h0a2.38,2.38,0,0,0,.95-1.61h0c0-.37.1-.45.37-.66-.46-.61,0-.89,0-1.55C98.72,222.46,98.55,222.47,98.39,222.53ZM89.49,225c-.22.05-.09.32,0,.25S89.62,225,89.49,225Zm0,0c-.16,0,0,0,0,0Zm.93,1.34c0,.48.3.1.28.08h0ZM101,223.51a.41.41,0,0,0,.29-.38c.06-.32.28-.76.11-1.06-.18,0-.16-.07,0-.1,0-.27,0-.26-.12-.16-.24.32-.36,1.43-.22,1.43A2.51,2.51,0,0,0,101,223.51Zm0-.27s-.06.11,0,0ZM99.2,224c.41-.21,1.69-.83,1.3-1.36-.5.17-.47.78-1.14.89-.78.44-.61,2.62-.52,2.57s.19-.24.19.08c.34,0-.06-1,.2-1.15.08.45.23.41.48.57a.49.49,0,0,0,.23-.43c-.26-.33-.47-.82.12-1,.06-.17,0-.35-.13-.4C99.55,224.32,98.69,224.37,99.2,224Zm-8.34,2.8c.22.26.6.11.4,0S91,226.64,90.86,226.82Zm.71.41c.06-.45-.28-.1-.18.15C91.51,227.41,91.56,227.36,91.57,227.23Zm0,0c0,.07,0,0,0,0Zm13.36-6.64a.22.22,0,0,1,0-.23c-.11.06-.15.19-.36.14-.12.19-.32.24-.47.37-.6-.2-.9,1.35-1.19,1.47-.16-.19-.11-.15-.15-.33,0-.36-.17,0-.42,0a3,3,0,0,1-.36.42c.29-.4,0-.14,0-.22a.45.45,0,0,0-.23.32c.1.16.38.34.52.24h0c.06,0,.22-.16,0,0a.42.42,0,0,0-.16.26c.16,0,.22,0,.2.2,1-.46,1.11-1.14.89.28,0,0,.66-.73.66-.56.58-.56.44-1.11.94-1.21-.68,1.69.54-1,.23-.77-.14-.17.14-.27.07-.49A1.5,1.5,0,0,0,104.93,220.59Zm-12.65,7.22Zm-.36-.18c-.24-.1-.15-.42-.42-.2.08.47,1,.62.78.38C92.35,227.88,92,227.57,91.92,227.63Zm8.31-3.43c.08-.07.37-.23.29-.23.17-.12.31.05.35-.34C100.85,223.64,100,224,100.23,224.2Zm1.46-1.07c.17,0,.31-.17.18-.33C101.87,222.8,101.51,223.13,101.69,223.13Zm4.16-4.65s-.33,0-.31.42l.26-.22c0,.07-.26.88-.26.88s-.41.58-.39.83a.82.82,0,0,1,.19-.22C105.58,219.83,106,218.77,105.85,218.48Zm-10.72,8.35s0,0-.11,0h0c0,.09-.44.15-.15.35C94.78,227.23,95.56,226.89,95.13,226.83Zm6.23-3.28a1.84,1.84,0,0,1-.59.56c0-.09-.08.13-.08.2v0c.09-.05.2,0,.28-.13.29-.06.9-1,.92-1A2.75,2.75,0,0,0,101.36,223.55Zm1.47-.41c-.16.07-.15.52-.21.58A.77.77,0,0,0,102.83,223.14Zm-.36.29v0c-.13,0-.32.64-.12.31A.41.41,0,0,0,102.47,223.43Zm-.35.7h0c-.07.06-.19.28-.26.31a1,1,0,0,0-.12.39C102,224.75,102.07,224.16,102.12,224.13Zm-.81.77c.26-.21-.19.14,0,0Zm-.29.28c0,.29,0-.05,0,0Zm-.53.54c.09,0,.43-.34.34-.43S100.45,225.58,100.49,225.72Zm1-.74s0,0,0,0,.14-.23,0-.12S101.48,224.91,101.48,225Zm-.4.26c-.4.39.31-.23,0,0Zm.22-.16c-.24.22.22-.16,0,0Zm-2.57,2h0c-.36.24-.26.23,0,.23S99.23,227,98.73,227.07Zm5.35-4.17c.09-.28-.12.24,0,0Zm-1,2.28a0,0,0,0,1,0,0v0l-.25.27A.47.47,0,0,0,103,225.18Zm-.2-.23-.12.09a.77.77,0,0,0,.21-.56,8.15,8.15,0,0,0-1.38,1.12h0c-.09.11-.24.28-.1.28h0a25.38,25.38,0,0,1-3.62,3.95c-.7.39-1.79,1.06-2,1.81-.21.05-.52.32-.11.44h0c0,.1,0,.21,0,.31a22.06,22.06,0,0,0,4.36-3.46c1-1,1.89-2.6,2.71-3.51a.35.35,0,0,1-.18.05A.84.84,0,0,0,102.84,225Zm-1.07.66c0-.12.12-.1.16-.15A.26.26,0,0,1,101.77,225.61Zm2.37-2.5c-.08-.56-.09.2-.22.2-.14.34-.24.7-.36,1.06a5.23,5.23,0,0,0,.58-1.25h0Zm-30.92,7.26c-.23-.44-.49-1.15-.7-.62-.25-.12-.71.07-1.09.14,0,.67.73,2.36,1.75,2.17a5.44,5.44,0,0,0,0-1.22h0c0-.12,0-.21.09-.21h0c.12-.06.06-.13,0-.24S73.28,230.46,73.22,230.37Zm10.52-38h0l-.1,0h0a.26.26,0,0,1-.27,0,1.24,1.24,0,0,0-.32,0s.1.18.14.22c-.18,0-.25-.1-.36-.21H82.6a6,6,0,0,0-.61.08h0a.91.91,0,0,0-.47.16c0,.11.12.14.24.13h.09a.29.29,0,0,0,.16,0,2.88,2.88,0,0,1,.4-.09l.09,0c.22.06,0,.08-.1.09l-.18,0c-.2,0-.5.22-.65.22.05,0,.16,0,.17.06-.15.14-.13.19-.07.36s0,.1,0,.12a1,1,0,0,0-.05.29,1.15,1.15,0,0,0,0,.32c-.16-.08-.1-.13,0-.28s-.09-.11-.16-.13a.12.12,0,0,1-.13,0c.13-.14.21-.28.07-.44-.15,0-.11,0,0-.05s0,0,0,0a1.45,1.45,0,0,0-1.19.22h0a19.61,19.61,0,0,1-2.08.08c.08,0,.17-.11.24-.14-.16-.05-.41.09-.57.14h0c-.12,0-.25,0-.25,0,.27-.44-1.16-.08-1.55,0a4.88,4.88,0,0,0-1.07.39,2.29,2.29,0,0,0-.69.41s1.07.17,1.15.2-.14.19-.12.22l.37.37a.51.51,0,0,0,.27.63.36.36,0,0,0,.14,0,1.61,1.61,0,0,0,.63-.12.77.77,0,0,0,.21,0,1.06,1.06,0,0,1,.5.08.16.16,0,0,0,.12,0s.09,0,.11.06a.36.36,0,0,0,.3-.08.32.32,0,0,0-.27,0h0l.68-.12-.28.11a4.21,4.21,0,0,0,.62-.09h0c.25,0,1.13,0,.5-.06.07,0,.31-.07.31,0l.16,0a.82.82,0,0,1,.4.14.42.42,0,0,0,.4-.12v0c0-.07,0-.06-.07-.09l.08,0c-.27,0,.13-.06.14-.06s.41-.11.59-.17h0a.2.2,0,0,0,.13-.12l0,0h0l0-.09a.07.07,0,0,0,0-.1s.06-.08.07-.12c-.21-.13-.21-.2,0-.23-.11-.07,0-.12.11-.16s.09-.2.19-.09l.09,0h0a.91.91,0,0,0,.29,0,.24.24,0,0,0,.11,0h0a.34.34,0,0,0,.14,0c.07,0,.12,0,.19,0l0,0h0s0-.06.06,0a0,0,0,0,0,0,0,.21.21,0,0,1,.27-.15,1.07,1.07,0,0,0,.31-.29h.09a.33.33,0,0,0,.13-.13.21.21,0,0,0-.12-.32.49.49,0,0,0-.38-.17.34.34,0,0,0-.24.11c-.09-.24.1-.26.36-.33h0c.07,0,.29,0,.2.07-.26.08,0,.12,0,.12s.2.24.36.12-.18-.29-.17-.28h.06l-.23-.2a2.2,2.2,0,0,0,1,.12C84.21,192.44,83.88,192.38,83.74,192.33Zm-7.47,3h0l.1-.06S76.27,195.33,76.27,195.36Zm2.74,0c-.22,0-.14,0-.12,0S79.15,195.28,79,195.34Zm4.12-1.84c-.06,0-.13-.07-.16-.1S83.1,193.5,83.13,193.5Zm-.35-.15Zm18.12,32Zm-4.57-24.87h0C96.24,200.42,96.23,200.41,96.33,200.48Zm-15.46.79c-.08-.07-.13-.16-.24-.26-.13.05-.13.19-.14.35l.54,0S80.93,201.3,80.87,201.27Zm-.38.09-.68,0s0,0,0,0h.67Zm-10.31,6.7c0,.09.08-.05,0,0Zm3.16-5.36Zm23.74,25.05a6.53,6.53,0,0,0,1.57-.71h0a9.3,9.3,0,0,0,1.66-1.12c-.08.22-.65.57-.59.85.28.08,1.17-1.36,1.18-1.42-.14.2-.52.81-.52.43a11.76,11.76,0,0,0-1.91,1.16s-1.38.66-1.38.62q.07-.3-.33.06s.35-.31.35-.24a.1.1,0,0,1,0-.06c-.06-.12-2.44.78-2.83.74a.86.86,0,0,1,.39-.9.39.39,0,0,0-.74-.11c-.4,0-.47-.36-.42-.67.26.05,0,.31.06.38s.77-1.3-.3-1c.73-.22-.35-1.31-.88-1.31l-.08,0c-.71,0-.82-1.73-.45-2.18a3,3,0,0,0,1.64.75.72.72,0,0,1,.08.52c.59,0,1.58-1.42,1.58-2a1.41,1.41,0,0,0-.7-1.18c-.4-.32-1-.47-.88-1.06,0-.18.47-.93.66-.93.74.1.3.33.12.77,0,.42.41.53.65.16.58-.64-.54-1.11.64-1.57a18.6,18.6,0,0,0,1.5-2.09c.34-.17.64-2.49-.13-2.36.23-1-1.11-.91-1.17-1.54.08-.19.48-.95.42-1.08-.28-.65-.84.42-.83.41-.38-.18-.52-.21-.43-.48s.25-1,.44-1c0,.09.09.77.19.79a2.05,2.05,0,0,0,.28-.36c0-.93,1.39.34,1.42.93.21.61.66.07.66-.22.21-.52-.33-1.64-1-1.5a2.61,2.61,0,0,1,.32-1.89c.79-1.35-1.23-3.27-.91-3.94A10.62,10.62,0,0,0,97.92,205c.15-.25,0-.15.16-.34-.22-.35-.69-.42-.84-.84a.22.22,0,0,1,.29,0,7.66,7.66,0,0,0-1.9-1.4c0,.09.17.39.22.46-.38,0-.6-.12-.56.36-.77-.82-.17-.28-.56,0-.31-.66-.57-2.13,0-2.55h0a1.07,1.07,0,0,1,.51-.74c-.2-.22-.77-.74-.68-1.18a.88.88,0,0,1,.44.12c0-.4-.42-.51-.58-.81,1,.52,1.12,1.76,1.95,2.39.31.23,1.66,1.23,1.76,1.38.34-.51-1.63-2.79-2.22-2.79-.15,0-.45-.38-.56-.51s.14-.22,0-.29-.12-.26-.17-.37c.47-.6-1.06-1.62-1.82-1.92a.22.22,0,0,0,.08,0,1.66,1.66,0,0,1-.39-.15s.17,0,.19-.07,0,0,0,0c0-.18.06-.28.2-.41l-.11-.1a1.3,1.3,0,0,1-.65-.3h0c-.19-.07-.31,0-.31.21-.23.17-.63.48-.08.59-.66-.13-.28-.06-.59.31.08.74.08,0,.42.56a3.53,3.53,0,0,0-.42-.06c-.1.23.24.91-.5.71h0a.52.52,0,0,0-.19.17c-.12.58-1,.31-1.25.89h0c.06.06,0,.12.21.26-.11.07-.13.16-.24.24s-.07.24-.31.1c0,.15.14.24.21.36-.18.17-.7-.34-.76-.39a.67.67,0,0,0-.87.43.78.78,0,0,0-.53,0,.35.35,0,0,1-.47.08h0a.78.78,0,0,0-.44-.78h0a1.53,1.53,0,0,1-.46.06c-.35-.12-.71.24-.87.41h0a.28.28,0,0,0-.1-.23c-.07.3-1.13.93-.82,1.18-.46.19-1.07.25-.5.76a.78.78,0,0,0-.33-.21h0s-.74-.07-.38.38c-.32-.09.05-.52-.22-.65-.26.73,0,1.67-.68,2.34,0-.68.9-1.89.32-2.49-.8.09-.76.71-.71,1.2l-.67,0,0,0,.64,0a1,1,0,0,1,0,.5,7.67,7.67,0,0,0-.64-.52l-.57,0a.58.58,0,0,1-.06.33c.17-.44-.49-.12-.73-.18.14,0,.16-.09.12-.16h-.36a2,2,0,0,0-.67.15h0c-.1,0-.39.36-.43.1s.13-.31.38-.33c.31-.86-.9.57-.77.45-.32-.39-.51.07-.91.23-.19-.2-.41-.42-.32-.29a.23.23,0,0,0-.13.31h0c-.15.22-.08-.18-.09-.18h0c0-.13.29-.44.29-.72,1,1.26,1.27-.5.69-1.12,0,0,.36-.83-.11-.54.26-.28-.36-.27-.49-.27l0,0a3.68,3.68,0,0,0-1.12-.09l-.32,0c0,.08.12.08.19.11-1.27.7-2.73-.19-3.67,1.13-.34.48.14.53.47.56-.3.6-.63.63-1,.85,0-.11.57-.47.64-.57-.55-.37-1.11.61-1.53.53a1.7,1.7,0,0,0-1-.13l.56-.6a21.27,21.27,0,0,1,1.47-1.67c.23,0,.36-.07.4-.25-.64,0,.07.05-.26-.14a.4.4,0,0,1-.32,0c.15-.13.26,0,.25-.2a.87.87,0,0,0-.62.21.29.29,0,0,0,.24,0,4.55,4.55,0,0,0-.62.43c0-.6-1.63-.09-1,.72.19-.09,1.11-.95.76-.36-.2.57-1.42.53-1.33,1.21.38,0,.11.46.42.62-.49.44-.4-.05-.44-.28a1.12,1.12,0,0,0-.28.25.77.77,0,0,0-.12-.47c-.32.19-1.07,2.37-1.34,1.51a1.15,1.15,0,0,0,0-.26c.28-1.26-.79-.6-.83.21,0-.64-1,1-1,1.37-.38.43-.51,0-.85.35-.13.11-.62.81-.62.29,0,0,0,0,0,0-.1.18-.65.61-.81,1.08s-.27.75-.41,1.13c-.14,1.25-.67,2.58-.83,3.9a11,11,0,0,1-.17,2.33,4.9,4.9,0,0,0,0,.54h0c0,1.56.71,3.53.94,5a19.8,19.8,0,0,0,7.09,12,.86.86,0,0,0-.22-.29c.13,0,.29.23.37.09a10.72,10.72,0,0,0-.68-.94s1,0,1,0a13,13,0,0,0-1.11-2.9c-.23-1.35,2.25-1.15,2.47-1.9.4,0,.65-1.26,1-1.26,0-.21.66-.89.08-1.09s-2.77.17-2.32-1a5.85,5.85,0,0,1,1.5.07s2.94-.56,2.95-.56,1-.67.78-.71c.56-.51.73-1,0-1.5s-.33-.4-.31-.91a3.92,3.92,0,0,0,1.45.8l.21.08h0c.45,0,.46.09.72,0s1.28.12,1.09.5c0,0,0,.24.08.24h0c.74.28.53,1.4,1.35,1.4h0a3.19,3.19,0,0,0,.47-.17c.33.56.76,5,1.92,5,1.47.18.92-2.39,1.69-2.94.49-.36,2.21-1.68,2.08-2.09h0c.46-.12,1.61-.63,1.79-.47S89.81,222,89.45,222c0,.3.89-.42,1-.51,1.07.34.25,2.91,1,3,.52.34.85,1.59,1.38,1.45-.5.13-.24,0-.15.08h0l-.74.15c.59-.14-1.74-1.15-2-.7-.15.27.53.55.6.65.67.41.2.1.3.52,0,0,.56-.36.56,0,.24.1.39.41.63.58s.36.5.58.65c.21.53,1.24.26,1.56.38a.61.61,0,0,0-.19.28C94.42,228.76,97,228.11,97.08,227.75Zm-2.16-24.62c.13,0,.21.25,0,0ZM72,202.32c.4-.16.56-.41,1-.48s1.59-1.81,2.36-1.31c.23-.2,0,.23,0,.19-.63.1-1.94.49-1.72,1.38h0c.21.05.79.16.76.43-.29.07-.61-.38-.9-.38a.15.15,0,0,0-.23.09c-.26.15-1.31,1-1.51.82.07-.19-.63-.75-.68-.87C71.41,202.12,71.8,202.4,72,202.32Zm1.31.38c-.06.16-.15.21-.27.14C73.26,202.55,73.43,202.62,73.34,202.7Zm-4.5,5.47s.56.33.1-.11c.14.13.22.23.28.18s0,.29.06.31a2.88,2.88,0,0,0-.41,1,1.16,1.16,0,0,1,0-.82c0,.09,0,.09.09,0h0c0-.24-.12-.34-.1-.61C68.85,208.1,68.85,208.14,68.84,208.17Zm.24,9.5h0a3.44,3.44,0,0,0-.08-1.8,11.4,11.4,0,0,0,0-1.75c.57.29.45,1.24.52,1.89a29.73,29.73,0,0,1,.8,4.74A7.67,7.67,0,0,1,69.08,217.67Zm-.3-5.53a2.09,2.09,0,0,0-.37,0h0c-.25-.45-.54-.85-.8-1.28-.62-.77,0-.66-1-.26a5.49,5.49,0,0,1-.48-2.86c.41-.47.75-.76.27-1.48-.29-.45-1.28-1.82-.89-2.26.43.46,0,.44.61.44,0-.07.49-.34.46-.5.14.62.71,0,.86-.09.4.33-.08.69.66.62.17.54-.53,1.85-.3,2.18-.13.23-.06.47-.27.72l-.1-.25c-.24.12-.23-.35-.44-.19,0,.06-.06,1,.13.94s.69-.71,1-.8a1.51,1.51,0,0,1,0,.3c0-.5.46-2.61.75-2.51-.42.82.09,1.47-.22,2.11a3.87,3.87,0,0,0-.54,1.65c0-.23,0,1.05.11.81s.14-.31.33-.28a1.85,1.85,0,0,0,.81,1.36C71.1,210.62,70.21,213.56,68.78,212.14Zm3.45-2.2h0a3,3,0,0,1-.7-.68c-.39-.88-1.42.12-1.35-1.2a7.47,7.47,0,0,1,1.34-.9s0,0,0,0h0a2.66,2.66,0,0,1,0,1.06C72.7,208,73.17,210.37,72.23,209.94Zm.56-1.94c0,.17-1-.11-.08-.2C72.73,207.84,72.9,207.68,72.79,208Zm.93,9.82c-.15-.18.07-1.38-.36-.72a4.7,4.7,0,0,1-.37-1.54c.07-.74.71.31.71.65.18.64,1,.88,1.5,1,0,0,0,.06,0,.1C74.57,217.46,74.51,217.79,73.72,217.82Zm1.7-8c0-.16,0-.22-.16-.19-.28.64,1,3.66-.49,3.39-.66-.43-.49-1.65-.13-1.52s0-.23,0-.4c.46-.91-.68-1.69,1.08-1.94.16,0,.24.1.4.19C76.06,209.53,75.54,209.74,75.42,209.77Zm2.68.72c-.62.5-.63-.21-.65-.21a.55.55,0,0,1,.15-.24C77.68,210,78.5,210.09,78.1,210.49Zm14.82,15.59c.08,0,.37,0,.37.16C93.09,226.29,92.57,226,92.92,226.08ZM75.18,192.69h0a5.79,5.79,0,0,0,.68-.29,7.39,7.39,0,0,0-.69.29l-.07,0Zm.7-.3Zm-1.84,1h0l0,0h0Zm.64-.43.45-.2.05,0A4.46,4.46,0,0,1,74.68,192.92Zm-1.22.69h0l.11-.07h0l.24-.12a1.55,1.55,0,0,1,.42-.21.46.46,0,0,0-.18,0c.38-.2-.19,0,0,0l-.1.06h0l-.7.39.11-.06a5.12,5.12,0,0,0-.75.46c.07,0,1-.52.88-.47Zm2.42-1h0a5.65,5.65,0,0,0,1.18-.28c.61-.16,1.85-.54,2.73-.76,0-.09-.27,0-.11-.1-.08,0-.36.05-.17-.07-.21,0-.42.08-.64.07.13,0,.61-.23.35-.14a23.68,23.68,0,0,0-3.3,1h0l0,0h0l-.09,0-.67.29-.69.35-.18.13c.52-.21,1.31-.46,1.61-.55Zm-1.63.56h0ZM81.06,191c.41-.06.83-.08,1.24-.11A4.55,4.55,0,0,0,81.06,191Zm1.26-.11h0Zm-4.68,1.45h-.07C77.48,192.44,77.54,192.42,77.64,192.38Zm2.23-.69a1.06,1.06,0,0,1-.25.09h0a11.07,11.07,0,0,0-2,.47c0,.05.2,0,.23,0a1.72,1.72,0,0,1-.25.14h0s0,0-.07,0c.32.12.64-.16,1-.08-.21.1-.55,0-.75.17.09.05.07,0,0,.09.21.4,3-.15,4.15-.45,0,0,0,0,0,0h0c.3-.09.49-.15.47-.17a.58.58,0,0,0-.41-.11h0c-.08,0-.4.09-.37-.12.06,0,1.36-.08,1.27.33-.46.08-.15.22-.16.23h.15a.42.42,0,0,0,.38-.21c0,.21.28.16.4.14s.19,0,.16-.16c.08,0,.12.07.22,0s-.36-.26-.47-.26h0a.32.32,0,0,1-.18.06h0a.08.08,0,0,0-.07,0v-.09c.11-.07.28-.22.28-.29h0c.14-.1.72-.13.83,0-.19,0-.51-.07-.57.17.83.23.23,0,.4.46.06,0,.46,0,.52-.11.37.19.6.08,1,.36s.45.21.76,0c-.21.16.35-.09.36-.09,0-.29-.81-.14-.92-.11.3-.24,0-.27.11-.44.64-.11,1.51.58,2.11.65a2.65,2.65,0,0,1,1.46.94,1.9,1.9,0,0,1,.17.35h0a6.14,6.14,0,0,0,1.79.79c0-.23.29-.4.43-.25-.3.1.52.42.79.34a.8.8,0,0,0-.4-.45c.53,0,.12,0,.34.11s1.82.64,1.21.19c.1-.12.28.11.36,0-.4-.56-.12-.15-.38-.4.15-.24,2,1.16,2.37,1.53l.35.26a.2.2,0,0,0,.13.16l-.07-.13h0c-.14-.39-1-.92-1.26-1.09l.16.07a2.08,2.08,0,0,0-.9-.64l-.31-.15c-.16-.15-.29-.16-.55-.35.61.19-.46-.34-.67-.34l-.19,0h0a9,9,0,0,1-2-1.21.13.13,0,0,1,.09-.07c-.07,0-.16-.09-.18-.1h.06c-.14,0-1.41-.51-1.77-.6a22.67,22.67,0,0,0-6.67-.52.26.26,0,0,1,.2.07c-.41.18-.9.25-1.27.44l0,0c-.11,0-.15-.06,0-.12-.17-.11-.57.09-.71.12a2.06,2.06,0,0,0-.57.1c.07,0,1.08.06.73.06,0,.08-.31.16.14.36-.54.07-.12,0-.38.1.15-.07-.22-.14-.23-.14a1.4,1.4,0,0,1,.12.18c-.12-.06-.43,0-.48,0,.44-.28-.52,0-.6,0,.16-.23,0,0,0-.17s.11-.07.17-.07a.57.57,0,0,0,.4-.15s-.17-.05-.22-.06h0c-.1,0,.14,0,.12,0h0a2.45,2.45,0,0,0-.36.08C79.69,191.77,79.79,191.65,79.87,191.69ZM93,193.44h0c.06,0,.19,0,.19.06s.22.07,0,.08h0a4.65,4.65,0,0,0-.63-.21A1.77,1.77,0,0,1,93,193.44Zm-7-1.67c-.11.06-.28-.1-.24-.15C86,191.62,85.83,191.69,86,191.77Zm-.45-.15c-.11,0-.41-.08-.47,0C85.24,191.5,85.45,191.58,85.57,191.62Zm-2.4-.05s-.16.08,0,.06c0,.15-.15,0-.17,0S83.22,191.52,83.17,191.57Zm-.58-.66h0Zm-.23,0a.86.86,0,0,0,.23,0l-.27,0ZM82,192.28c0-.07,0-.1,0-.14h0S82,192.25,82,192.28Z" transform="translate(-41.43 -156.45)"/></svg>
