<?xml version="1.0" encoding="UTF-8" standalone="no"?>
<svg
   xmlns:dc="http://purl.org/dc/elements/1.1/"
   xmlns:cc="http://creativecommons.org/ns#"
   xmlns:rdf="http://www.w3.org/1999/02/22-rdf-syntax-ns#"
   xmlns:svg="http://www.w3.org/2000/svg"
   xmlns="http://www.w3.org/2000/svg"
   viewBox="0 0 566.93335 566.93335"
   height="566.93335"
   width="566.93335"
   xml:space="preserve"
   id="svg2"
   version="1.1"><metadata
     id="metadata8"><rdf:RDF><cc:Work
         rdf:about=""><dc:format>image/svg+xml</dc:format><dc:type
           rdf:resource="http://purl.org/dc/dcmitype/StillImage" /></cc:Work></rdf:RDF></metadata><defs
     id="defs6"><clipPath
       id="clipPath26"
       clipPathUnits="userSpaceOnUse"><path
         id="path24"
         d="M 0,425.2 H 425.2 V 0 H 0 Z" /></clipPath></defs><g
     transform="matrix(1.3333333,0,0,-1.3333333,0,566.93333)"
     id="g10"><g
       transform="translate(138.8262,234.3052)"
       id="g12"><path
         id="path14"
         style="fill:#0074bc;fill-opacity:1;fill-rule:nonzero;stroke:none"
         d="M 0,0 H 9.937 V -16.308 H 15.66 V 0 h 9.937 V -43.146 H 15.66 v 18.521 H 9.937 V -43.146 H 0 Z" /></g><g
       transform="translate(181.6494,227.6094)"
       id="g16"><path
         id="path18"
         style="fill:#0074bc;fill-opacity:1;fill-rule:nonzero;stroke:none"
         d="m 0,0 h -0.108 l -2.538,-21.114 h 4.967 z m 3.294,-28.782 h -6.967 l -1.025,-7.668 h -9.937 L -6.643,6.696 H 6.533 L 14.634,-36.45 H 4.212 Z" /></g><g
       id="g20"><g
         clip-path="url(#clipPath26)"
         id="g22"><g
           transform="translate(208.8105,198.5029)"
           id="g28"><path
             id="path30"
             style="fill:#0074bc;fill-opacity:1;fill-rule:nonzero;stroke:none"
             d="m 0,0 h 2.268 c 2.862,0 3.456,1.619 3.456,5.885 0,3.511 -0.594,5.834 -3.456,5.834 H 0 Z m 0,18.738 h 2.052 c 2.592,0 3.24,2.322 3.24,5.022 0,3.024 -0.648,4.698 -3.132,4.698 H 0 Z M -9.937,35.802 H 3.834 c 7.236,0 10.746,-2.754 10.746,-10.152 0,-4.536 -0.648,-8.532 -5.454,-10.152 V 15.39 c 4.86,-0.864 6.534,-4.482 6.534,-9.937 0,-7.236 -2.646,-12.797 -11.502,-12.797 H -9.937 Z" /></g><g
           transform="translate(247.8525,217.5112)"
           id="g32"><path
             id="path34"
             style="fill:#0074bc;fill-opacity:1;fill-rule:nonzero;stroke:none"
             d="m 0,0 h -0.107 l -8.046,-26.352 h -10.801 v 43.146 h 9.612 V -8.965 h 0.109 l 7.937,25.759 H 9.612 V -26.352 H 0 Z" /></g><g
           transform="translate(280.792,225.9893)"
           id="g36"><path
             id="path38"
             style="fill:#0074bc;fill-opacity:1;fill-rule:nonzero;stroke:none"
             d="m 0,0 h -5.724 v -21.115 c 0,-9.936 -3.294,-14.418 -8.91,-14.418 -2.376,0 -4.104,0.269 -5.724,0.703 v 8.639 c 0.755,-0.377 1.35,-0.539 1.836,-0.539 1.62,0 2.862,0.755 2.862,8.099 V 8.316 H 9.937 V -34.83 H 0 Z" /></g><g
           transform="translate(307.9541,227.6094)"
           id="g40"><path
             id="path42"
             style="fill:#0074bc;fill-opacity:1;fill-rule:nonzero;stroke:none"
             d="m 0,0 h -0.108 l -2.538,-21.114 h 4.967 z m 3.294,-28.782 h -6.967 l -1.025,-7.668 h -9.937 L -6.643,6.696 H 6.533 L 14.634,-36.45 H 4.212 Z" /></g><g
           transform="translate(335.4941,244.6733)"
           id="g44"><path
             id="path46"
             style="fill:#0074bc;fill-opacity:1;fill-rule:nonzero;stroke:none"
             d="m 0,0 c 0.054,-2.43 1.728,-3.348 3.996,-3.348 2.43,0 3.672,0.864 3.996,3.348 h 4.104 c 0,-5.076 -3.456,-7.452 -8.1,-7.452 -5.022,0 -8.1,2.322 -8.1,7.452 z M 8.64,-27.162 H 8.532 L 0.486,-53.514 h -10.8 v 43.146 h 9.612 v -25.759 h 0.108 l 7.938,25.759 H 18.252 V -53.514 H 8.64 Z" /></g><g
           transform="translate(358.1729,234.3052)"
           id="g48"><path
             id="path50"
             style="fill:#0074bc;fill-opacity:1;fill-rule:nonzero;stroke:none"
             d="M 0,0 H 9.937 V -16.308 H 15.66 V 0 h 9.937 V -43.146 H 15.66 v 18.521 H 9.937 V -43.146 H 0 Z" /></g><g
           transform="translate(253.5928,183.501)"
           id="g52"><path
             id="path54"
             style="fill:#0074bc;fill-opacity:1;fill-rule:nonzero;stroke:none"
             d="M 0,0 H 6.242 V -2.465 H 2.945 V -12.789 H 0 Z" /></g><g
           transform="translate(264.3779,178.0596)"
           id="g56"><path
             id="path58"
             style="fill:#0074bc;fill-opacity:1;fill-rule:nonzero;stroke:none"
             d="M 0,0 C 0.768,0 1.088,0.465 1.088,1.584 1.088,2.705 0.768,3.17 0,3.17 H -0.736 V 0 Z m -3.682,5.441 h 3.153 c 3.234,0 4.562,-0.543 4.562,-3.857 0,-1.904 -0.56,-3.857 -3.233,-3.857 h -1.536 v -5.075 h -2.946 z" /></g><g
           transform="translate(276.9395,183.501)"
           id="g60"><path
             id="path62"
             style="fill:#0074bc;fill-opacity:1;fill-rule:nonzero;stroke:none"
             d="m 0,0 -2.401,-10.131 c -0.241,-0.992 -0.512,-1.762 -1.088,-2.209 -0.513,-0.4 -1.089,-0.545 -1.762,-0.545 -0.736,0 -1.552,0.129 -1.936,0.209 v 2.465 c 0.256,-0.049 0.543,-0.113 0.864,-0.113 0.272,0 0.512,0.097 0.512,0.48 0,0.129 -0.016,0.256 -0.096,0.594 L -8.003,0 h 3.041 l 0.944,-7.17 h 0.033 L -3.042,0 Z" /></g><g
           transform="translate(282.2344,181.0361)"
           id="g64"><path
             id="path66"
             style="fill:#0074bc;fill-opacity:1;fill-rule:nonzero;stroke:none"
             d="M 0,0 H -1.696 V -10.324 H -4.642 V 2.465 H 2.944 V -10.324 H 0 Z" /></g><g
           transform="translate(291.1299,181.0361)"
           id="g68"><path
             id="path70"
             style="fill:#0074bc;fill-opacity:1;fill-rule:nonzero;stroke:none"
             d="M 0,0 H -1.697 V -10.324 H -4.643 V 2.465 H 2.945 V -10.324 H 0 Z" /></g><g
           transform="translate(299.1777,181.5166)"
           id="g72"><path
             id="path74"
             style="fill:#0074bc;fill-opacity:1;fill-rule:nonzero;stroke:none"
             d="m 0,0 h -0.032 l -0.752,-6.258 h 1.472 z m 0.977,-8.531 h -2.066 l -0.304,-2.274 h -2.945 l 2.369,12.789 h 3.906 l 2.4,-12.789 H 1.249 Z" /></g><g
           transform="translate(308.2803,183.501)"
           id="g76"><path
             id="path78"
             style="fill:#0074bc;fill-opacity:1;fill-rule:nonzero;stroke:none"
             d="M 0,0 H 2.85 V -5.232 H 2.896 L 4.85,0 H 7.986 L 5.521,-5.297 7.986,-12.789 H 4.85 L 3.537,-8.211 2.85,-9.268 v -3.521 H 0 Z" /></g><g
           transform="translate(321.8174,180.2686)"
           id="g80"><path
             id="path82"
             style="fill:#0074bc;fill-opacity:1;fill-rule:nonzero;stroke:none"
             d="M 0,0 C 0,0.432 0,1.168 -0.848,1.168 -1.695,1.168 -1.695,0.432 -1.695,0 v -6.322 c 0,-0.336 0,-1.168 0.847,-1.168 C 0,-7.49 0,-6.658 0,-6.322 Z m -4.641,-0.256 c 0,2.496 1.6,3.697 3.793,3.697 2.194,0 3.793,-1.201 3.793,-3.697 v -5.81 c 0,-2.274 -1.455,-3.698 -3.793,-3.698 -2.336,0 -3.793,1.424 -3.793,3.698 z" /></g><g
           transform="translate(326.1514,183.501)"
           id="g84"><path
             id="path86"
             style="fill:#0074bc;fill-opacity:1;fill-rule:nonzero;stroke:none"
             d="M 0,0 H 4.498 L 5.426,-6.338 H 5.459 L 6.402,0 H 10.98 V -12.789 H 8.131 v 9.941 H 8.1 L 6.371,-12.789 H 4.467 L 2.881,-2.848 H 2.85 v -9.941 H 0 Z" /></g><g
           transform="translate(343.1611,181.0361)"
           id="g88"><path
             id="path90"
             style="fill:#0074bc;fill-opacity:1;fill-rule:nonzero;stroke:none"
             d="M 0,0 H -1.695 V -10.324 H -4.641 V 2.465 H 2.945 V -10.324 H 0 Z" /></g><g
           transform="translate(351.21,181.5166)"
           id="g92"><path
             id="path94"
             style="fill:#0074bc;fill-opacity:1;fill-rule:nonzero;stroke:none"
             d="M 0,0 H -0.033 L -0.785,-6.258 H 0.687 Z M 0.975,-8.531 H -1.09 l -0.303,-2.274 h -2.945 l 2.369,12.789 h 3.905 l 2.4,-12.789 H 1.248 Z" /></g><g
           transform="translate(356.3115,183.501)"
           id="g96"><path
             id="path98"
             style="fill:#0074bc;fill-opacity:1;fill-rule:nonzero;stroke:none"
             d="M 0,0 H 2.945 V -4.834 H 4.643 V 0 H 7.588 V -12.789 H 4.643 v 5.49 H 2.945 v -5.49 H 0 Z" /></g><g
           transform="translate(370.8271,178.5244)"
           id="g100"><path
             id="path102"
             style="fill:#0074bc;fill-opacity:1;fill-rule:nonzero;stroke:none"
             d="M 0,0 H -0.033 L -2.418,-7.812 H -5.619 V 4.977 h 2.849 v -7.635 h 0.032 l 2.353,7.635 H 2.85 V -7.812 H 0 Z" /></g><g
           transform="translate(378.042,186.5752)"
           id="g104"><path
             id="path106"
             style="fill:#0074bc;fill-opacity:1;fill-rule:nonzero;stroke:none"
             d="m 0,0 c 0.016,-0.721 0.512,-0.992 1.184,-0.992 0.72,0 1.087,0.256 1.183,0.992 h 1.217 c 0,-1.504 -1.023,-2.209 -2.4,-2.209 -1.489,0 -2.401,0.688 -2.401,2.209 z M 2.561,-8.051 H 2.527 l -2.384,-7.812 h -3.202 v 12.789 h 2.85 v -7.635 h 0.031 l 2.354,7.635 H 5.41 V -15.863 H 2.561 Z" /></g><g
           transform="translate(63.4717,198.9521)"
           id="g108"><path
             id="path110"
             style="fill:#0074bc;fill-opacity:1;fill-rule:nonzero;stroke:none"
             d="m 0,0 c -0.464,0.729 -0.893,1.48 -1.279,2.258 -1.163,0.472 -2.245,1.107 -3.228,1.922 -5.325,4.408 -3.926,10.309 -3.057,12.68 -0.588,-0.865 -1.44,-1.527 -2.448,-1.876 -0.52,-0.181 -1.061,-0.273 -1.606,-0.273 -0.327,0 -0.652,0.043 -0.972,0.109 l 1.53,-2.157 -2.22,-3.704 -0.015,0.018 -1.309,-2.182 c 0.265,-0.33 0.54,-0.654 0.834,-0.967 C -10.577,2.455 -5.63,0.383 0,0" /></g><g
           transform="translate(51.8477,223.8628)"
           id="g112"><path
             id="path114"
             style="fill:#0074bc;fill-opacity:1;fill-rule:nonzero;stroke:none"
             d="M 0,0 C 0.782,0 1.562,-0.177 2.271,-0.513 L 2.756,0.235 0.592,3.294 -1.132,1.255 -0.174,-0.003 C -0.116,-0.001 -0.058,0 0,0" /></g><g
           transform="translate(54.8447,222.9385)"
           id="g116"><path
             id="path118"
             style="fill:#0074bc;fill-opacity:1;fill-rule:nonzero;stroke:none"
             d="M 0,0 C 0.933,-0.639 1.644,-1.565 2.016,-2.634 2.137,-2.983 2.219,-3.342 2.264,-3.708 L 2.79,-2.831 0.286,0.458 Z" /></g><g
           transform="translate(55.5742,224.0605)"
           id="g120"><path
             id="path122"
             style="fill:#0074bc;fill-opacity:1;fill-rule:nonzero;stroke:none"
             d="M 0,0 2.491,-3.272 3.866,-0.979 1.511,2.34 Z" /></g><g
           transform="translate(56.5537,227.1611)"
           id="g124"><path
             id="path126"
             style="fill:#0074bc;fill-opacity:1;fill-rule:nonzero;stroke:none"
             d="M 0,0 -1.826,2.633 -3.584,0.554 -1.513,-2.371 Z" /></g><g
           transform="translate(47.7529,220.1558)"
           id="g128"><path
             id="path130"
             style="fill:#0074bc;fill-opacity:1;fill-rule:nonzero;stroke:none"
             d="M 0,0 C -0.136,-0.35 -0.225,-0.721 -0.266,-1.105 L 1.567,-3.748 1.566,-3.75 3.063,-5.86 c 0.816,-0.202 1.676,-0.161 2.478,0.118 1.214,0.421 2.178,1.345 2.65,2.54 l 0.013,0.033 c 0.373,0.966 0.393,2.04 0.053,3.023 C 7.643,1.624 5.969,2.813 4.094,2.813 3.606,2.813 3.123,2.731 2.659,2.571 1.436,2.146 0.467,1.208 0,0" /></g><g
           transform="translate(46.1221,212.7979)"
           id="g132"><path
             id="path134"
             style="fill:#0074bc;fill-opacity:1;fill-rule:nonzero;stroke:none"
             d="M 0,0 -2.573,3.696 -4.691,1.19 -1.741,-2.684 Z" /></g><g
           transform="translate(49.6953,208.1123)"
           id="g136"><path
             id="path138"
             style="fill:#0074bc;fill-opacity:1;fill-rule:nonzero;stroke:none"
             d="m 0,0 -3.001,3.949 -1.708,-2.724 3.046,-4 z" /></g><g
           transform="translate(48.9824,215.5762)"
           id="g140"><path
             id="path142"
             style="fill:#0074bc;fill-opacity:1;fill-rule:nonzero;stroke:none"
             d="m 0,0 -1.833,-2.838 2.991,-3.927 1.668,2.78 z" /></g><g
           transform="translate(46.5781,213.522)"
           id="g144"><path
             id="path146"
             style="fill:#0074bc;fill-opacity:1;fill-rule:nonzero;stroke:none"
             d="M 0,0 1.833,2.87 -0.366,6.041 -2.495,3.524 Z" /></g><g
           transform="translate(114.9199,210.1553)"
           id="g148"><path
             id="path150"
             style="fill:#0074bc;fill-opacity:1;fill-rule:nonzero;stroke:none"
             d="M 0,0 C 0.833,0.291 1.724,0.336 2.58,0.16 L 1.048,2.321 3.269,6.024 3.283,6.005 4.592,8.188 C 4.328,8.519 4.053,8.843 3.758,9.155 c -3.194,3.374 -8.142,5.447 -13.774,5.828 0.463,-0.726 0.887,-1.479 1.274,-2.253 1.167,-0.473 2.251,-1.109 3.236,-1.925 C -0.18,6.395 -1.579,0.494 -2.447,-1.877 -1.859,-1.012 -1.008,-0.35 0,0" /></g><g
           transform="translate(114.2617,200.7412)"
           id="g152"><path
             id="path154"
             style="fill:#0074bc;fill-opacity:1;fill-rule:nonzero;stroke:none"
             d="M 0,0 -0.485,-0.748 1.679,-3.807 3.402,-1.77 2.444,-0.51 C 1.606,-0.545 0.761,-0.361 0,0" /></g><g
           transform="translate(113.5352,201.1533)"
           id="g156"><path
             id="path158"
             style="fill:#0074bc;fill-opacity:1;fill-rule:nonzero;stroke:none"
             d="M 0,0 C -0.934,0.639 -1.645,1.564 -2.016,2.633 -2.137,2.982 -2.219,3.342 -2.264,3.707 L -2.79,2.83 -0.287,-0.459 Z" /></g><g
           transform="translate(112.8057,200.0303)"
           id="g160"><path
             id="path162"
             style="fill:#0074bc;fill-opacity:1;fill-rule:nonzero;stroke:none"
             d="M 0,0 -2.491,3.271 -3.866,0.979 -1.511,-2.34 Z" /></g><g
           transform="translate(111.8262,196.9307)"
           id="g164"><path
             id="path166"
             style="fill:#0074bc;fill-opacity:1;fill-rule:nonzero;stroke:none"
             d="m 0,0 1.827,-2.635 1.758,2.08 -2.072,2.924 z" /></g><g
           transform="translate(120.626,203.9346)"
           id="g168"><path
             id="path170"
             style="fill:#0074bc;fill-opacity:1;fill-rule:nonzero;stroke:none"
             d="m 0,0 c 0.136,0.35 0.226,0.721 0.267,1.105 l -1.822,2.625 0.002,0.002 -1.509,2.129 c -0.34,0.084 -0.689,0.125 -1.039,0.125 -0.488,0 -0.971,-0.082 -1.438,-0.244 C -6.765,5.318 -7.735,4.381 -8.203,3.172 -8.576,2.203 -8.596,1.129 -8.257,0.146 c 0.615,-1.769 2.288,-2.959 4.164,-2.959 0.488,0 0.971,0.083 1.436,0.243 C -1.435,-2.145 -0.465,-1.207 0,0" /></g><g
           transform="translate(126.9492,210.1025)"
           id="g172"><path
             id="path174"
             style="fill:#0074bc;fill-opacity:1;fill-rule:nonzero;stroke:none"
             d="M 0,0 -2.95,3.874 -4.692,1.192 -2.118,-2.506 Z" /></g><g
           transform="translate(118.6846,215.9795)"
           id="g176"><path
             id="path178"
             style="fill:#0074bc;fill-opacity:1;fill-rule:nonzero;stroke:none"
             d="m 0,0 3.002,-3.949 1.707,2.723 -3.046,4 z" /></g><g
           transform="translate(119.3975,208.5146)"
           id="g180"><path
             id="path182"
             style="fill:#0074bc;fill-opacity:1;fill-rule:nonzero;stroke:none"
             d="M 0,0 1.832,2.838 -1.159,6.765 -2.826,3.985 Z" /></g><g
           transform="translate(121.8018,210.5693)"
           id="g184"><path
             id="path186"
             style="fill:#0074bc;fill-opacity:1;fill-rule:nonzero;stroke:none"
             d="m 0,0 -1.833,-2.871 2.199,-3.17 2.129,2.516 z" /></g><g
           transform="translate(100.3145,193.5654)"
           id="g188"><path
             id="path190"
             style="fill:#0074bc;fill-opacity:1;fill-rule:nonzero;stroke:none"
             d="m 0,0 c 0.378,-3.74 -0.145,-8.252 -3.369,-12.145 -1.731,-2.087 -3.782,-3.462 -6.113,-4.146 l -1.709,-3.52 -2.907,0.694 c 0.172,-0.508 0.292,-1.039 0.338,-1.594 0.163,-1.986 -0.552,-3.934 -1.963,-5.346 -0.366,-0.367 -0.794,-0.683 -1.254,-0.964 l 1.876,-0.362 -0.265,-0.547 c 4.792,0.725 8.808,2.979 11.747,6.623 4.415,5.477 6.247,14.153 4.818,22.43 C 0.812,0.736 0.413,0.361 0,0" /></g><g
           transform="translate(67.9873,230.4824)"
           id="g192"><path
             id="path194"
             style="fill:#0074bc;fill-opacity:1;fill-rule:nonzero;stroke:none"
             d="m 0,0 c -0.51,3.875 -0.136,8.715 3.273,12.829 1.138,1.374 2.42,2.428 3.823,3.195 l 0.162,0.334 -0.06,0.013 2.229,4.592 2.906,-0.693 c -0.172,0.507 -0.292,1.038 -0.338,1.592 -0.162,1.988 0.553,3.936 1.963,5.346 0.367,0.368 0.795,0.685 1.254,0.965 l -1.146,0.221 C 9.801,27.492 6.205,25.324 3.516,21.987 -1.015,16.365 -2.819,7.371 -1.171,-1.101 -0.79,-0.72 -0.4,-0.353 0,0" /></g><g
           transform="translate(81.2764,246.2671)"
           id="g196"><path
             id="path198"
             style="fill:#0074bc;fill-opacity:1;fill-rule:nonzero;stroke:none"
             d="m 0,0 0.707,1.083 c -0.903,0.771 -1.603,1.745 -2.041,2.84 l -2.18,0.52 -1.65,-3.398 z" /></g><g
           transform="translate(87.3418,245.6069)"
           id="g200"><path
             id="path202"
             style="fill:#0074bc;fill-opacity:1;fill-rule:nonzero;stroke:none"
             d="M 0,0 C -1.603,-0.132 -3.147,0.254 -4.483,1.091 L -4.949,0.402 0.701,-0.947 1.594,0.317 C 1.075,0.152 0.542,0.045 0,0" /></g><g
           transform="translate(81.8389,245.1348)"
           id="g204"><path
             id="path206"
             style="fill:#0074bc;fill-opacity:1;fill-rule:nonzero;stroke:none"
             d="m 0,0 -2.164,-3.296 5.608,-1.14 2.182,3.092 z" /></g><g
           transform="translate(75.7314,246.3901)"
           id="g208"><path
             id="path210"
             style="fill:#0074bc;fill-opacity:1;fill-rule:nonzero;stroke:none"
             d="m 0,0 -1.685,-3.463 4.437,-0.853 2.2,3.313 z" /></g><g
           transform="translate(92.8564,253.4106)"
           id="g212"><path
             id="path214"
             style="fill:#0074bc;fill-opacity:1;fill-rule:nonzero;stroke:none"
             d="m 0,0 c -0.1,1.189 -0.533,2.308 -1.257,3.241 l -3.995,0.806 -3.937,0.756 c -0.475,-0.274 -0.903,-0.6 -1.274,-0.971 -1.278,-1.278 -1.927,-3.045 -1.779,-4.847 0.275,-3.327 3.24,-5.892 6.63,-5.613 1.447,0.122 2.807,0.752 3.83,1.775 C -0.501,-3.571 0.148,-1.803 0,0" /></g><g
           transform="translate(85.916,264.3345)"
           id="g216"><path
             id="path218"
             style="fill:#0074bc;fill-opacity:1;fill-rule:nonzero;stroke:none"
             d="M 0,0 4.947,-0.952 7.414,2.828 0.763,4.415 -1.259,0.255 Z" /></g><g
           transform="translate(98.8145,261.4775)"
           id="g220"><path
             id="path222"
             style="fill:#0074bc;fill-opacity:1;fill-rule:nonzero;stroke:none"
             d="M 0,0 2.631,3.729 -4.23,5.367 -6.77,1.61 Z" /></g><g
           transform="translate(91.4814,262.186)"
           id="g224"><path
             id="path226"
             style="fill:#0074bc;fill-opacity:1;fill-rule:nonzero;stroke:none"
             d="m 0,0 -2.614,-3.979 6.718,-1.365 2.634,3.736 z" /></g><g
           transform="translate(87.583,258.4585)"
           id="g228"><path
             id="path230"
             style="fill:#0074bc;fill-opacity:1;fill-rule:nonzero;stroke:none"
             d="M 0,0 2.656,4 -3.296,5.206 -5.328,1.024 Z" /></g><g
           transform="translate(84.1914,235.4062)"
           id="g232"><path
             id="path234"
             style="fill:#0074bc;fill-opacity:1;fill-rule:nonzero;stroke:none"
             d="m 0,0 c -0.139,0 -0.274,-0.001 -0.413,-0.003 -6.237,-0.109 -12.06,-2.639 -16.393,-7.126 -4.334,-4.488 -6.661,-10.396 -6.552,-16.636 0.222,-12.797 10.924,-23.207 23.762,-22.953 12.878,0.231 23.175,10.895 22.951,23.771 C 23.13,-10.294 12.652,0 0,0" /></g><g
           transform="translate(84.5537,177.8506)"
           id="g236"><path
             id="path238"
             style="fill:#0074bc;fill-opacity:1;fill-rule:nonzero;stroke:none"
             d="M 0,0 C 0.903,-0.773 1.604,-1.746 2.042,-2.842 L 4.222,-3.361 5.871,0.037 0.707,1.082 Z" /></g><g
           transform="translate(79.8018,179.6182)"
           id="g240"><path
             id="path242"
             style="fill:#0074bc;fill-opacity:1;fill-rule:nonzero;stroke:none"
             d="m 0,0 c 1.376,0 2.71,-0.385 3.877,-1.117 l 0.466,0.689 -5.651,1.35 -0.892,-1.264 c 0.518,0.166 1.052,0.272 1.595,0.317 C -0.402,-0.008 -0.2,0 0,0" /></g><g
           transform="translate(84.6982,180.0654)"
           id="g244"><path
             id="path246"
             style="fill:#0074bc;fill-opacity:1;fill-rule:nonzero;stroke:none"
             d="M 0,0 2.165,3.295 -3.444,4.436 -5.626,1.344 Z" /></g><g
           transform="translate(90.8066,178.8096)"
           id="g248"><path
             id="path250"
             style="fill:#0074bc;fill-opacity:1;fill-rule:nonzero;stroke:none"
             d="m 0,0 1.684,3.463 -4.436,0.853 -2.2,-3.314 z" /></g><g
           transform="translate(73.6816,171.7881)"
           id="g252"><path
             id="path254"
             style="fill:#0074bc;fill-opacity:1;fill-rule:nonzero;stroke:none"
             d="m 0,0 c 0.099,-1.187 0.531,-2.307 1.256,-3.24 l 3.65,-0.74 0.345,-0.067 3.937,-0.756 c 0.477,0.276 0.905,0.602 1.274,0.973 1.279,1.279 1.928,3.045 1.78,4.846 C 11.966,4.344 9.001,6.91 5.612,6.631 4.178,6.51 2.829,5.889 1.809,4.881 L 1.78,4.852 C 0.5,3.572 -0.148,1.805 0,0" /></g><g
           transform="translate(80.6211,160.8643)"
           id="g256"><path
             id="path258"
             style="fill:#0074bc;fill-opacity:1;fill-rule:nonzero;stroke:none"
             d="m 0,0 -4.946,0.953 -2.467,-3.779 6.65,-1.588 2.022,4.16 z" /></g><g
           transform="translate(67.7236,163.7217)"
           id="g260"><path
             id="path262"
             style="fill:#0074bc;fill-opacity:1;fill-rule:nonzero;stroke:none"
             d="m 0,0 -2.632,-3.729 6.861,-1.636 2.54,3.756 z" /></g><g
           transform="translate(75.0566,163.0146)"
           id="g264"><path
             id="path266"
             style="fill:#0074bc;fill-opacity:1;fill-rule:nonzero;stroke:none"
             d="M 0,0 2.614,3.979 -4.104,5.344 -6.738,1.607 Z" /></g><g
           transform="translate(84.2822,165.7158)"
           id="g268"><path
             id="path270"
             style="fill:#0074bc;fill-opacity:1;fill-rule:nonzero;stroke:none"
             d="m 0,0 -5.328,1.025 -2.655,-4 5.951,-1.205 z" /></g><g
           transform="translate(82.0225,232.9165)"
           id="g272"><path
             id="path274"
             style="fill:#ffffff;fill-opacity:1;fill-rule:nonzero;stroke:none"
             d="M 0,0 C 0.019,0.075 0.021,0.101 -0.026,0.148 -0.029,0.147 -0.033,0.146 -0.036,0.146 -0.073,0.115 -0.017,0.03 0,0 M 0.334,1.354 C 0.414,1.345 0.493,1.362 0.568,1.369 0.478,1.363 0.387,1.365 0.297,1.357 c 0.01,0 0.014,-10e-4 0.037,-0.003 M 0.568,1.369 C 0.577,1.37 0.586,1.37 0.596,1.37 c -0.01,0 -0.019,0 -0.028,-0.001 M 1.152,0.716 C 1.095,0.727 0.991,0.634 1.106,0.652 1.098,0.508 0.96,0.708 0.941,0.7 0.962,0.732 1.193,0.765 1.152,0.716 M 3.545,0.666 C 3.438,0.693 3.138,0.743 3.074,0.678 3.219,0.782 3.429,0.708 3.545,0.666 M 3.994,0.517 C 3.887,0.451 3.715,0.61 3.762,0.666 3.96,0.666 3.806,0.592 3.994,0.517 m 6.962,-1.668 c 0.008,-0.004 0.016,-0.005 0.023,-0.005 0.004,0 0.008,-0.003 0.013,-0.003 0.005,-10e-4 0.009,-10e-4 0.014,-0.002 0.057,0 0.192,-0.03 0.192,-0.057 0.062,-0.028 0.219,-0.069 -0.008,-0.074 v 0.001 0 c -0.289,0.096 -0.302,0.141 -0.63,0.214 0.134,-0.01 0.267,-0.035 0.396,-0.074 M -2.152,0.589 C -2.233,0.552 -2.317,0.522 -2.405,0.501 H -2.408 -2.409 -2.41 C -3.081,0.38 -3.711,0.27 -4.359,0.038 -4.376,-0.019 -4.161,0.037 -4.131,0.043 -4.175,0.01 -4.293,-0.053 -4.383,-0.094 c 0.013,-0.001 0.029,0.01 0.046,0 -0.021,0 -0.044,-0.03 -0.067,-0.03 0.322,-0.127 0.642,0.162 0.972,0.074 -0.212,-0.1 -0.551,-0.009 -0.751,-0.169 0.092,-0.044 0.074,-0.03 -0.003,-0.083 0.214,-0.405 3.012,0.145 4.15,0.448 0.004,0.002 -0.003,0.011 0.003,0.012 C -0.029,0.154 -0.03,0.152 -0.026,0.148 0.279,0.229 0.47,0.293 0.445,0.314 0.288,0.425 0.198,0.425 0.042,0.425 H 0.04 0.038 0.035 0.031 C 0.029,0.423 0.028,0.423 0.025,0.422 H 0.024 0.021 C -0.059,0.447 -0.382,0.33 -0.348,0.542 -0.292,0.587 1.004,0.623 0.916,0.21 0.458,0.134 0.763,-0.01 0.757,-0.019 0.809,-0.021 0.859,-0.021 0.911,-0.016 1.117,0.008 1.235,0.084 1.292,0.194 1.317,-0.019 1.571,0.039 1.689,0.057 1.917,0.099 1.878,0.025 1.843,0.209 1.929,0.234 1.971,0.143 2.066,0.182 2.119,0.263 1.706,0.44 1.594,0.44 H 1.593 1.592 1.59 C 1.531,0.405 1.47,0.388 1.405,0.388 H 1.404 1.403 1.402 1.4 c -0.04,0 -0.056,-0.017 -0.073,-0.032 0,0.03 0.005,0.058 -0.002,0.092 0.11,0.061 0.282,0.217 0.287,0.282 H 1.614 C 1.756,0.838 2.335,0.862 2.451,0.718 2.259,0.681 1.936,0.784 1.874,0.548 2.711,0.313 2.107,0.556 2.278,0.081 2.338,0.064 2.734,0.107 2.796,0.197 3.164,0.001 3.397,0.114 3.774,-0.167 4.243,-0.353 4.23,-0.381 4.541,-0.146 4.328,-0.306 4.893,-0.06 4.897,-0.057 4.897,0.234 4.089,0.08 3.979,0.058 4.273,0.292 4.03,0.324 4.088,0.489 4.723,0.604 5.595,-0.083 6.199,-0.154 6.783,-0.232 7.224,-0.654 7.653,-1.098 7.721,-1.201 7.773,-1.304 7.83,-1.442 7.829,-1.446 7.826,-1.45 7.825,-1.453 v -0.002 c 0.356,-0.181 1.329,-0.788 1.79,-0.788 0,0.222 0.294,0.399 0.431,0.246 -0.295,-0.103 0.517,-0.422 0.789,-0.339 -0.071,0.198 -0.205,0.347 -0.402,0.449 0.536,-0.007 0.122,0.038 0.341,-0.106 0.273,-0.22 1.827,-0.639 1.214,-0.193 0.102,0.116 0.283,-0.113 0.36,-0.037 -0.397,0.555 -0.12,0.144 -0.384,0.395 0.154,0.242 2.023,-1.162 2.371,-1.527 0.117,-0.089 0.228,-0.186 0.357,-0.258 -0.002,-0.038 0.045,-0.142 0.128,-0.158 -0.029,0.059 -0.051,0.095 -0.07,0.123 0.003,-0.002 0.005,-0.005 0.009,-0.006 -0.14,0.385 -1.042,0.917 -1.263,1.087 0.054,-0.025 0.108,-0.048 0.163,-0.066 -0.218,0.321 -0.596,0.493 -0.905,0.634 -0.104,0.048 -0.208,0.1 -0.307,0.156 -0.163,0.15 -0.287,0.156 -0.552,0.349 0.616,-0.195 -0.453,0.341 -0.664,0.341 -0.094,0 -0.079,-0.007 -0.193,0.018 v 0.002 c -0.002,0 -0.002,0 -0.002,0 0,0.001 0,0.001 -10e-4,0.001 h -10e-4 c -0.002,0 -0.002,0.002 -0.002,0.003 C 11.03,-1.13 11.03,-1.13 11.03,-1.128 l -10e-4,10e-4 c -0.693,0.333 -1.371,0.714 -1.96,1.213 0.022,0.037 0.05,0.059 0.085,0.068 -0.062,0 -0.152,0.085 -0.175,0.1 0.011,0 0.025,-0.003 0.037,-0.003 H 9.038 C 8.896,0.251 7.63,0.766 7.265,0.852 5.084,1.367 2.831,1.519 0.596,1.37 0.67,1.375 0.738,1.367 0.795,1.307 0.387,1.12 -0.104,1.052 -0.47,0.861 -0.468,0.86 -0.444,0.834 -0.444,0.833 -0.553,0.79 -0.59,0.894 -0.457,0.952 -0.621,1.061 -1.024,0.867 -1.166,0.83 -1.385,0.808 -1.543,0.816 -1.736,0.731 -1.659,0.689 -0.649,0.672 -1.002,0.672 -0.983,0.594 -1.317,0.515 -0.862,0.314 -1.406,0.244 -0.987,0.289 -1.246,0.215 c 0.153,0.068 -0.217,0.143 -0.23,0.138 -0.018,0.032 0.14,-0.187 0.124,-0.175 -0.121,0.056 -0.432,-0.005 -0.484,0.031 0.444,0.286 -0.519,-0.038 -0.593,-0.038 0.158,0.236 0.03,0.036 -0.03,0.178 0.06,0 0.111,0.067 0.162,0.067 0.16,0 0.293,0.05 0.402,0.15 C -1.919,0.607 -2.066,0.612 -2.11,0.621 -2.115,0.619 -2.119,0.618 -2.125,0.618 -2.225,0.604 -1.987,0.666 -2.004,0.666 -2.013,0.671 -2.021,0.675 -2.031,0.678 -2.245,0.628 -2.22,0.649 -2.393,0.59 -2.333,0.515 -2.23,0.639 -2.152,0.589 m -2.231,-0.683 c -0.019,0.001 -0.036,0.011 -0.065,-0.001 -0.093,-0.064 -0.03,-0.043 0.065,0.001 m 4.678,1.451 c -0.004,0 -0.009,-10e-4 -0.014,-10e-4 0.013,-0.001 0.03,0 0.042,-0.001 -0.008,0 -0.018,0.001 -0.028,0.002 M -0.963,1.245 C -0.55,1.301 -0.134,1.323 0.281,1.356 -0.102,1.382 -0.628,1.329 -0.963,1.245 m -6.81,-2.167 c 0.003,0.003 0.009,0.006 0.013,0.009 -0.011,-0.004 -0.024,-0.009 -0.035,-0.014 0.005,0 0.006,0 0.012,0 0.003,0.002 0.006,0.003 0.01,0.005 m 1.634,0.559 h 0.006 c 0.362,0 0.86,0.197 1.183,0.279 0.606,0.154 1.852,0.542 2.732,0.762 C -2.24,0.767 -2.49,0.697 -2.328,0.775 -2.414,0.792 -2.691,0.726 -2.5,0.841 -2.711,0.869 -2.921,0.759 -3.14,0.775 -3.017,0.81 -2.537,1.005 -2.797,0.917 -3.921,0.667 -5.015,0.322 -6.09,-0.086 h -0.001 -10e-4 v -0.001 c -0.012,-0.01 -0.025,-0.015 -0.039,-0.017 v 0 H -6.133 C -6.162,-0.117 -6.191,-0.13 -6.219,-0.143 -6.443,-0.238 -6.666,-0.34 -6.89,-0.438 c -0.147,-0.074 -0.588,-0.299 -0.692,-0.351 -0.02,-0.01 -0.111,-0.076 -0.178,-0.124 0.513,0.204 1.304,0.455 1.606,0.546 0.006,0 0.009,0.001 0.015,0.004 m -2.428,-0.966 h 0.003 c 0,0 0,10e-4 10e-4,10e-4 0.014,0.01 0.107,0.072 0.107,0.072 h 10e-4 c 0.086,0.035 0.167,0.076 0.246,0.123 0.049,0.05 0.209,0.124 0.414,0.206 -0.102,0.003 -0.124,0.012 -0.177,-0.011 0.381,0.202 -0.192,-0.004 -0.022,-0.009 -0.024,-0.013 -0.054,-0.031 -0.099,-0.057 h -0.003 c -0.002,0 -0.003,0 -0.002,-0.002 -0.228,-0.124 -0.475,-0.262 -0.7,-0.388 0.033,0.022 0.07,0.04 0.104,0.06 -0.079,-0.037 -0.753,-0.418 -0.753,-0.459 0.074,0 0.972,0.517 0.88,0.463 z m 1.221,0.69 c 0.148,0.074 0.304,0.134 0.456,0.201 0.013,0.006 0.036,0.018 0.044,0.022 -0.161,-0.084 -0.329,-0.163 -0.5,-0.223 m -0.632,-0.426 c 0,0 -0.001,0 -0.001,-0.001 0,0 -0.004,-0.003 -0.005,-0.004 -0.004,0 -0.007,-0.002 -0.009,-0.005 h -0.002 c 0,-0.002 -0.002,-0.003 -0.004,-0.002 0,-0.002 -0.001,-0.003 -0.003,-0.003 h -0.002 c 10e-4,0 -0.002,-0.003 -0.003,-0.003 -10e-4,-0.001 -10e-4,-0.001 -0.002,-0.002 0.016,0.006 0.03,0.01 0.044,0.018 -0.008,0 -0.006,0.002 -0.006,0.005 z m 1.839,0.958 -0.007,-0.003 v 0 c 0.001,0.002 0.003,0.002 0.007,0.003 m -0.706,-0.297 c 0.003,0.001 0.005,0.002 0.024,0.01 0.231,0.08 0.456,0.175 0.675,0.284 -0.043,-0.001 -0.608,-0.251 -0.691,-0.289 -0.055,-0.024 -0.202,-0.091 -0.068,-0.032 0.029,0.013 0.046,0.021 0.06,0.027 m 17.744,-33.394 c 0.08,-0.022 0.367,-0.047 0.367,-0.159 -0.199,-0.044 -0.723,0.231 -0.367,0.159 m -14.825,15.589 c -0.62,-0.502 -0.624,0.211 -0.648,0.211 0.044,0.102 0.075,0.173 0.15,0.245 0.078,0.012 0.9,-0.055 0.498,-0.456 m -2.678,0.724 c 0.015,0.157 -0.037,0.219 -0.157,0.184 -0.28,-0.637 0.97,-3.652 -0.487,-3.381 -0.666,0.421 -0.493,1.641 -0.135,1.52 0.398,-0.134 -0.019,0.228 -0.019,0.396 0.455,0.911 -0.679,1.694 1.083,1.935 0.159,0.036 0.241,-0.098 0.392,-0.188 -0.04,-0.224 -0.56,-0.434 -0.677,-0.466 m -1.694,-8.048 c -0.153,0.178 0.067,1.379 -0.36,0.717 -0.173,0.397 -0.371,1.078 -0.371,1.537 0.07,0.742 0.706,-0.303 0.706,-0.648 0.179,-0.641 1.002,-0.883 1.504,-1.051 -0.003,-0.031 0.012,-0.063 0.02,-0.094 -0.658,-0.106 -0.717,-0.432 -1.499,-0.461 m -0.931,9.817 c -0.045,-0.169 -1.027,0.113 -0.079,0.199 0.02,-0.038 0.184,0.117 0.079,-0.199 m -0.56,-1.939 H -9.79 c -0.326,0.224 -0.499,0.419 -0.707,0.675 -0.389,0.885 -1.415,-0.114 -1.343,1.207 0.481,0.296 0.765,0.674 1.336,0.898 0.005,-0.042 0.024,-0.014 0.051,-0.014 10e-4,0 0.002,0 0.002,-0.002 h 0.002 c 0,-10e-4 10e-4,-0.002 0.003,-0.002 0.002,0 0,-0.002 0.003,-0.002 h 10e-4 c 0.002,-0.001 0.002,-0.001 0.002,-0.004 0.103,-0.356 0.058,-0.615 0.024,-1.055 1.089,0.241 1.563,-2.128 0.627,-1.701 m -3.449,-2.199 c 0.005,0.01 -0.448,-0.006 -0.369,-0.011 h -0.002 c -0.254,0.453 -0.539,0.844 -0.799,1.276 -0.621,0.777 -0.038,0.663 -1.051,0.258 -0.279,0.167 -0.692,2.484 -0.483,2.869 0.405,0.463 0.75,0.758 0.274,1.48 -0.294,0.446 -1.283,1.813 -0.898,2.254 0.432,-0.457 0.004,-0.437 0.618,-0.436 0.034,0.069 0.49,0.338 0.46,0.501 0.139,-0.622 0.707,0.043 0.856,0.088 0.395,-0.335 -0.084,-0.69 0.661,-0.619 0.164,-0.538 -0.529,-1.857 -0.299,-2.186 -0.134,-0.223 -0.061,-0.47 -0.272,-0.712 -0.002,-10e-4 -0.101,0.256 -0.1,0.249 -0.239,-0.12 -0.228,0.344 -0.44,0.192 -0.017,-0.066 -0.062,-1.046 0.134,-0.941 0.295,0.157 0.684,0.705 0.961,0.793 0.024,-0.097 0.026,-0.195 0.028,-0.293 0.005,0.492 0.457,2.609 0.745,2.509 -0.418,-0.82 0.091,-1.476 -0.214,-2.113 -0.268,-0.56 -0.543,-1.038 -0.54,-1.649 -10e-4,0.226 -0.056,-1.051 0.104,-0.81 0.086,0.153 0.145,0.306 0.336,0.281 0.02,-0.613 0.422,-1.075 0.803,-1.367 1.799,-0.098 0.912,-3.039 -0.513,-1.613 m 0.299,-5.536 c 10e-4,0.002 0,-0.127 0,0 0.149,0.598 0.087,1.219 -0.079,1.807 0.073,0.533 -0.011,1.173 -0.027,1.744 0.571,-0.287 0.457,-1.235 0.521,-1.889 0.199,0 0.798,-4.363 0.798,-4.736 -0.438,0.74 -1.213,2.138 -1.213,3.074 m -0.244,9.508 c 0.03,-0.014 0.556,-0.329 0.101,0.106 0.137,-0.131 0.215,-0.233 0.281,-0.178 0.066,-10e-4 0.046,-0.288 0.062,-0.314 -0.166,-0.329 -0.424,-0.735 -0.415,-1.027 -0.108,0.262 -0.117,0.535 -0.026,0.816 -0.019,-0.083 0.01,-0.086 0.087,-0.008 h 10e-4 c 0.024,0.245 -0.122,0.341 -0.096,0.608 0.019,0.062 0.011,0.021 0.005,-0.003 m 4.504,5.467 c -0.065,-0.165 -0.155,-0.211 -0.27,-0.139 0.186,0.289 0.361,0.222 0.27,0.139 m -1.318,0.381 c 0.409,0.155 0.566,0.408 0.972,0.474 0.387,0.159 1.588,1.812 2.366,1.317 0.222,0.192 0.04,-0.236 0.052,-0.196 -0.634,-0.094 -1.942,-0.487 -1.729,-1.376 h 10e-4 c 0.214,-0.05 0.796,-0.166 0.763,-0.429 -0.29,-0.077 -0.61,0.382 -0.898,0.382 -0.114,0.05 -0.19,0.013 -0.235,-0.096 -0.255,-0.147 -1.303,-1.03 -1.504,-0.815 0.065,0.183 -0.633,0.751 -0.687,0.872 0.289,0.06 0.672,-0.218 0.899,-0.133 m 22.899,-0.815 c 0.13,0.036 0.204,-0.245 0,0 m 2.151,-24.615 c -0.016,-0.102 1.192,0.466 1.576,0.705 h 0.003 c 0.637,0.269 1.094,0.736 1.656,1.125 -0.081,-0.221 -0.653,-0.576 -0.589,-0.854 0.281,-0.082 1.17,1.365 1.182,1.42 -0.143,-0.198 -0.526,-0.805 -0.526,-0.428 -0.194,0.051 -1.667,-1.019 -1.912,-1.156 -0.002,-0.002 -1.378,-0.668 -1.372,-0.623 0.049,0.199 -0.061,0.18 -0.329,-0.058 0.01,0.027 0.345,0.306 0.345,0.24 0.01,0.025 0.027,0.045 0.049,0.058 -0.063,0.119 -2.441,-0.777 -2.829,-0.742 -0.034,0.514 0.067,0.613 0.394,0.897 0.01,0.32 -0.572,0.523 -0.739,0.115 -0.4,-0.026 -0.473,0.355 -0.42,0.67 0.259,-0.047 -0.003,-0.307 0.054,-0.381 0.134,-0.176 0.767,1.295 -0.295,0.984 0.723,0.213 -0.349,1.305 -0.887,1.305 -0.01,-0.01 -0.066,-0.023 -0.081,-0.023 -0.701,0 -0.82,1.736 -0.445,2.181 0.195,-0.248 1.32,-0.846 1.635,-0.748 0.099,-0.158 0.128,-0.332 0.087,-0.523 0.584,0.025 1.579,1.424 1.579,1.99 0.012,0.555 -0.302,0.873 -0.703,1.185 -0.4,0.317 -1.022,0.467 -0.883,1.057 0.042,0.182 0.471,0.934 0.669,0.934 0.734,-0.106 0.294,-0.33 0.119,-0.77 0.042,-0.424 0.409,-0.529 0.649,-0.166 0.582,0.647 -0.543,1.11 0.633,1.574 0.102,0.118 1.662,2.131 1.5,2.09 0.342,0.17 0.644,2.489 -0.121,2.358 0.226,0.982 -1.117,0.909 -1.177,1.538 0.085,0.193 0.48,0.954 0.424,1.087 -0.277,0.644 -0.843,-0.426 -0.827,-0.416 -0.388,0.184 -0.529,0.213 -0.435,0.481 0.037,0.134 0.25,0.989 0.444,1.004 -0.053,-0.092 0.089,-0.773 0.189,-0.791 0.013,-0.002 0.234,0.276 0.276,0.36 0,0.931 1.392,-0.338 1.424,-0.931 0.204,-0.611 0.66,-0.071 0.66,0.216 0.203,0.527 -0.331,1.64 -1.008,1.505 -0.225,0.287 0.08,1.789 0.318,1.887 0.791,1.356 -1.237,3.269 -0.91,3.94 0.479,-0.486 0.893,-1.223 1.464,-1.589 0.152,0.248 0.032,0.152 0.165,0.34 -0.222,0.349 -0.696,0.424 -0.845,0.836 0.085,0.08 0.182,0.083 0.294,0.013 0.015,0.163 -1.742,1.413 -1.904,1.4 -0.013,-0.09 0.175,-0.385 0.223,-0.454 -0.377,0.047 -0.601,0.114 -0.556,-0.366 -0.772,0.819 -0.175,0.286 -0.565,0.017 -0.307,0.663 -0.568,2.131 -0.047,2.554 v 0.002 c 0.04,0.36 0.256,0.536 0.508,0.741 -0.203,0.219 -0.773,0.742 -0.684,1.18 0.158,-0.003 0.306,-0.045 0.445,-0.126 -0.035,0.405 -0.418,0.513 -0.578,0.817 0.968,-0.522 1.116,-1.765 1.949,-2.39 0.311,-0.229 1.654,-1.229 1.754,-1.383 0.344,0.508 -1.625,2.789 -2.214,2.787 -0.152,0.045 -0.446,0.387 -0.561,0.516 0.003,0.029 0.143,0.221 0.018,0.289 -0.003,0.134 -0.121,0.258 -0.172,0.372 0.477,0.593 -1.056,1.62 -1.813,1.912 0.026,0 0.051,-0.005 0.077,0.003 -0.066,0.019 -0.34,0.104 -0.39,0.147 -10e-4,0.002 0.165,0.02 0.186,0.07 -0.003,0.014 -0.002,0.028 0.003,0.042 -0.041,0.177 0.059,0.284 0.2,0.407 -0.036,0.036 -0.074,0.071 -0.113,0.104 -0.25,0.045 -0.457,0.14 -0.647,0.299 -0.004,0.003 -0.009,0.003 -0.014,0.003 0,0.002 0,0.003 -0.003,0.002 -0.196,0.065 -0.315,-0.011 -0.312,-0.218 -0.23,-0.169 -0.631,-0.471 -0.077,-0.585 -0.66,0.129 -0.288,0.065 -0.592,-0.311 0.076,-0.742 0.082,-0.047 0.42,-0.56 -0.097,0 -0.344,0.08 -0.422,0.057 C 9.523,-4.463 9.87,-5.142 9.131,-4.944 v -0.002 c -0.002,10e-4 -0.003,0 -0.002,-0.002 C 9.052,-4.985 8.984,-5.046 8.941,-5.121 8.822,-5.698 7.897,-5.426 7.692,-6.009 H 7.691 v -0.002 c 0,0 -10e-4,-0.002 -10e-4,-0.002 -0.001,0 -0.002,0 -0.003,-0.001 v 0 -0.003 H 7.686 c 0,0 -0.001,0 -0.001,0 C 7.748,-6.074 7.658,-6.141 7.894,-6.272 7.789,-6.344 7.769,-6.44 7.656,-6.513 7.69,-6.721 7.587,-6.756 7.348,-6.617 7.369,-6.766 7.487,-6.854 7.561,-6.973 7.379,-7.146 6.856,-6.638 6.794,-6.582 6.244,-6.475 6.043,-6.741 5.923,-7.018 5.786,-6.969 5.604,-6.982 5.398,-7.062 5.254,-7.214 5.09,-7.25 4.927,-7.142 V -7.143 H 4.925 4.924 c 0.036,0.115 -0.025,0.607 -0.438,0.776 -0.002,0.001 -0.004,0 -0.003,-0.001 H 4.482 V -6.371 H 4.48 4.479 c -0.002,0 0,-10e-4 -0.003,-10e-4 H 4.475 C 4.322,-6.417 4.157,-6.441 4.015,-6.437 3.663,-6.318 3.312,-6.672 3.149,-6.846 3.146,-6.848 3.141,-6.848 3.137,-6.848 3.127,-6.852 3.12,-6.853 3.111,-6.854 3.115,-6.798 3.076,-6.672 3.006,-6.622 2.938,-6.924 1.878,-7.552 2.191,-7.804 1.731,-7.997 1.116,-8.054 1.689,-8.562 1.6,-8.468 1.479,-8.394 1.357,-8.359 H 1.356 1.354 1.352 C 1.313,-8.381 0.607,-8.287 0.97,-8.739 0.649,-8.651 1.018,-8.219 0.745,-8.088 0.49,-8.817 0.703,-9.751 0.07,-10.424 c -0.037,0.675 0.894,1.884 0.314,2.485 -0.792,-0.086 -0.753,-0.71 -0.703,-1.193 -0.062,0.005 -0.266,0.014 -0.669,0.032 0.009,-0.005 0.017,-0.011 0.026,-0.017 0.314,-0.009 0.569,-0.017 0.643,-0.018 0.023,-0.218 0.047,-0.41 -0.003,-0.505 -0.222,0.186 -0.41,0.37 -0.64,0.523 -0.179,0.005 -0.375,0.011 -0.569,0.016 -0.002,-0.12 -0.004,-0.242 -0.057,-0.322 0.169,0.439 -0.494,0.113 -0.736,0.178 0.137,0.034 0.164,0.09 0.123,0.16 -0.242,0.004 -0.397,0.004 -0.363,-0.005 -0.234,-0.01 -0.474,-0.062 -0.667,-0.144 0,10e-4 -0.001,10e-4 -0.002,10e-4 h -0.002 -0.002 c -10e-4,0.001 -10e-4,0.001 -0.003,0.001 0,10e-4 -10e-4,0.002 -10e-4,0.003 0,0 0,0 -0.002,0 -0.1,-0.036 -0.39,-0.355 -0.426,-0.096 0.002,0.2 0.126,0.311 0.372,0.33 0.318,0.856 -0.898,-0.568 -0.765,-0.449 -0.324,0.392 -0.508,-0.071 -0.907,-0.227 -0.19,0.194 -0.415,0.414 -0.328,0.289 -0.131,-0.088 -0.18,-0.197 -0.125,-0.311 10e-4,0 10e-4,0 0,-0.001 h 0.003 c -0.157,-0.218 -0.084,0.176 -0.097,0.176 h -0.003 c 0.001,0.002 0,0.003 -0.002,0.002 0,0 -0.001,0 0,0.002 -0.002,0 -0.003,0 -0.005,10e-4 0,0.002 -0.002,0.004 -0.004,0.004 0.03,0.135 0.284,0.442 0.288,0.723 0.999,-1.256 1.274,0.496 0.687,1.119 0.008,0.013 0.365,0.829 -0.108,0.54 0.261,0.282 -0.36,0.273 -0.491,0.273 -0.003,0.004 -0.009,0.014 -0.015,0.016 -0.456,0.093 -0.736,0.119 -1.124,0.096 -0.107,-0.008 -0.214,-0.015 -0.32,-0.022 0.042,-0.08 0.116,-0.086 0.194,-0.115 -1.275,-0.696 -2.737,0.192 -3.674,-1.124 -0.344,-0.483 0.136,-0.531 0.466,-0.562 -0.298,-0.597 -0.625,-0.627 -1.004,-0.852 -0.005,0.106 0.568,0.47 0.636,0.572 -0.544,0.367 -1.109,-0.608 -1.53,-0.527 -0.265,0.147 -0.67,0.18 -1.012,0.122 0.169,0.17 0.412,0.43 0.566,0.604 0.394,0.646 1.087,1.156 1.464,1.666 0.234,-0.008 0.368,0.076 0.403,0.252 -0.637,0.034 0.074,-0.05 -0.258,0.142 -0.109,-0.061 -0.215,-0.074 -0.32,-0.038 0.147,0.13 0.255,0.042 0.244,0.201 -0.232,0.006 -0.435,-0.063 -0.61,-0.211 0.081,-0.023 0.158,-0.01 0.233,0.039 -0.218,-0.127 -0.423,-0.272 -0.616,-0.434 0,0.6 -1.631,0.092 -1.017,-0.714 0.188,0.085 1.109,0.942 0.76,0.354 -0.209,-0.572 -1.428,-0.525 -1.33,-1.204 0.374,0.02 0.108,-0.466 0.415,-0.62 -0.488,-0.439 -0.399,0.046 -0.442,0.273 -0.108,-0.062 -0.2,-0.144 -0.277,-0.247 0.014,0.172 -0.027,0.329 -0.124,0.472 -0.313,-0.187 -1.067,-2.367 -1.335,-1.51 0.003,0.087 -0.007,0.173 -0.029,0.257 0.279,1.265 -0.795,0.602 -0.835,-0.21 0,0.638 -0.959,-1.032 -0.959,-1.37 -0.374,-0.431 -0.504,-0.047 -0.85,-0.344 -0.131,-0.113 -0.614,-0.817 -0.614,-0.294 -0.014,-0.029 -0.019,-0.034 -0.015,-0.015 -0.104,-0.174 -0.65,-0.602 -0.812,-1.079 -0.131,-0.377 -0.269,-0.751 -0.412,-1.123 -0.139,-1.254 -0.67,-2.587 -0.825,-3.899 -0.066,-0.552 0.06,-1.865 -0.175,-2.335 0.002,-0.176 0.024,-0.364 0.04,-0.536 v -0.002 c 0.006,-1.561 0.711,-3.53 0.946,-5.045 0.729,-4.713 3.463,-8.94 7.092,-11.959 -0.053,0.111 -0.127,0.207 -0.223,0.289 0.133,-0.008 0.285,-0.223 0.371,-0.086 -0.214,0.326 -0.44,0.639 -0.683,0.943 0.041,-0.027 1.038,0.037 1.038,0.039 0.086,0.112 -0.918,2.78 -1.105,2.899 -0.234,1.345 2.249,1.15 2.467,1.898 0.398,-0.023 0.651,1.256 0.986,1.256 0,0.219 0.654,0.893 0.071,1.092 -0.527,0.144 -2.767,-0.166 -2.313,1.019 0.398,0.08 1.075,-0.019 1.495,-0.064 0,-0.049 2.939,0.562 2.952,0.562 0.029,0.04 0.954,0.668 0.777,0.702 0.566,0.509 0.735,0.98 -0.019,1.502 -0.612,0.422 -0.325,0.401 -0.311,0.915 0.269,-0.349 1.095,-0.67 1.455,-0.808 0.068,-0.021 0.14,-0.049 0.207,-0.076 h 0.001 c 0.452,-0.016 0.461,-0.088 0.716,-0.012 0.135,0.002 1.284,-0.119 1.097,-0.494 0.038,-0.002 0.05,-0.24 0.081,-0.24 h 10e-4 c 0.734,-0.287 0.525,-1.401 1.348,-1.401 h 0.011 c -0.054,-0.037 0.243,0.078 0.464,0.166 0.329,-0.557 0.762,-4.961 1.921,-4.961 1.469,-0.179 0.92,2.393 1.687,2.944 0.499,0.357 2.217,1.676 2.085,2.092 h 0.001 c 0.462,0.113 1.61,0.625 1.794,0.466 0.074,-0.191 1.64,-2.127 1.288,-2.127 0,-0.304 0.884,0.42 0.956,0.512 1.072,-0.342 0.25,-2.91 1.036,-3.031 0.527,-0.346 0.853,-1.598 1.387,-1.453 -0.498,-0.135 -0.246,-0.037 -0.148,-0.084 h 10e-4 c -0.017,-0.004 -0.56,-0.106 -0.739,-0.151 0.592,0.147 -1.736,1.157 -1.985,0.705 -0.151,-0.273 0.525,-0.552 0.596,-0.654 0.669,-0.406 0.203,-0.096 0.304,-0.512 0.043,-0.021 0.558,0.354 0.558,-0.015 0.244,-0.104 0.393,-0.404 0.628,-0.58 0.211,-0.156 0.368,-0.504 0.581,-0.649 0.211,-0.527 1.244,-0.256 1.564,-0.377 -0.091,-0.076 -0.156,-0.17 -0.196,-0.283 0.427,-0.24 3.018,0.408 3.079,0.772 m -23.732,25.049 c -0.099,-0.097 0.01,0.009 0,0 m -3.161,-5.358 c -0.006,-0.098 0.077,0.047 0,0 m 10.31,6.697 c -0.2,0.009 -0.425,0.019 -0.684,0.03 0.015,-0.015 0.006,-0.025 0.013,-0.039 0.187,-0.003 0.425,-0.009 0.67,-0.016 0,0.009 10e-4,0.017 10e-4,0.025 m 0.375,0.089 c -0.078,0.072 -0.129,0.163 -0.238,0.264 -0.125,-0.048 -0.134,-0.197 -0.137,-0.353 0.211,-0.009 0.39,-0.017 0.542,-0.024 -0.057,0.037 -0.101,0.083 -0.167,0.113 m 15.461,0.788 c -0.003,0.002 -0.005,0.004 -0.007,0.006 -0.082,0.06 -0.094,0.068 0.007,-0.006 m 4.575,-24.867 v -0.002 l 0.001,0.002 z M 0.756,-1.071 c -0.118,0 0.012,0.005 0,0 m 0.348,-0.142 c -0.06,0 -0.122,0.066 -0.158,0.1 0.032,0.036 0.133,-0.104 0.158,-0.1 m -4.113,-1.843 c -0.228,-0.042 -0.147,0.041 -0.121,0.041 0.024,0.017 0.255,0.016 0.121,-0.041 m -2.74,-0.017 c -0.013,-10e-4 -0.022,-0.007 -0.035,-0.009 0.058,0.036 0.106,0.064 0.104,0.057 -0.047,-0.003 -0.07,-0.019 -0.069,-0.048 M 1.722,-0.05 H 1.721 C 1.687,-0.054 1.653,-0.059 1.62,-0.063 c -0.016,0 -0.03,0.001 -0.046,0.003 -0.095,-0.037 -0.17,-0.041 -0.271,0.025 0.011,0.019 -0.286,-0.011 -0.319,-0.02 0,0.012 0.104,-0.177 0.14,-0.224 -0.173,0.008 -0.244,0.1 -0.359,0.216 C 0.701,-0.07 0.64,-0.068 0.576,-0.068 0.372,-0.082 0.171,-0.108 -0.031,-0.148 h -0.002 c -0.164,-0.008 -0.357,-0.072 -0.474,-0.16 -0.026,-0.112 0.123,-0.141 0.24,-0.127 0.028,-0.007 0.067,-0.008 0.094,-0.002 h 0.003 0.001 c 0.063,-0.002 0.099,0.014 0.157,0.04 0.128,0.041 0.271,0.073 0.404,0.092 0.028,0.013 0.058,0.019 0.084,0.019 0.22,-0.063 0.051,-0.081 -0.101,-0.093 -0.058,-0.004 -0.121,-0.013 -0.18,-0.013 -0.202,-0.015 -0.494,-0.221 -0.644,-0.221 0.045,-0.052 0.152,-0.047 0.167,-0.064 -0.151,-0.143 -0.133,-0.188 -0.07,-0.362 0.057,-0.061 0.019,-0.101 -0.053,-0.117 -0.024,-0.071 -0.048,-0.221 -0.048,-0.289 -0.026,-0.163 -0.01,-0.158 -0.01,-0.317 -0.158,0.079 -0.1,0.13 -0.051,0.281 0.081,0.057 -0.087,0.106 -0.155,0.125 -0.051,-0.027 -0.092,-0.034 -0.137,-0.013 0.133,0.142 0.213,0.279 0.077,0.442 -0.153,0.002 -0.111,0.022 0.002,0.048 0.028,0.01 0.004,0.027 -0.015,0.039 -0.41,0.112 -0.884,0.009 -1.195,-0.214 0,-0.003 0,-0.003 -0.003,-0.002 -0.638,-0.065 -1.615,-0.104 -2.085,-0.077 0.078,0.036 0.177,0.11 0.238,0.134 -0.154,0.057 -0.403,-0.085 -0.563,-0.134 v 0 c -0.122,-0.021 -0.252,-0.013 -0.255,0.047 0.276,0.436 -1.155,0.084 -1.548,0.001 -0.368,-0.097 -0.744,-0.209 -1.069,-0.395 -0.215,-0.091 -0.534,-0.237 -0.69,-0.408 0.019,-0.024 1.069,-0.164 1.148,-0.198 -0.035,-0.053 -0.138,-0.186 -0.117,-0.222 0.112,-0.104 0.344,-0.336 0.371,-0.366 -0.084,-0.278 0.027,-0.515 0.264,-0.629 0.035,-0.019 0.142,-0.012 0.147,-0.01 0.181,-0.018 0.487,0.042 0.628,0.116 0.063,0 0.127,-0.01 0.21,0.014 0.216,0 0.303,-0.007 0.495,-0.081 0.035,-0.027 0.078,-0.041 0.121,-0.037 0.003,0.001 0.088,-0.005 0.115,-0.053 0.11,-0.025 0.218,0.006 0.299,0.082 -0.073,0.049 -0.22,0.035 -0.273,0.008 10e-4,10e-4 0.002,0.002 0.003,0.004 0,0.002 0,0.008 0.002,0.008 0.186,0.037 0.682,0.112 0.68,0.112 0.069,0.023 -0.234,-0.089 -0.279,-0.103 0.215,0.011 0.408,0.045 0.618,0.084 h 10e-4 v 10e-4 c 0.242,-10e-4 1.124,-0.012 0.494,0.062 0.075,0.023 0.312,0.071 0.312,-0.017 0.036,-0.007 0.125,-0.03 0.158,-0.043 0.188,-0.032 0.344,-0.085 0.405,-0.137 0.152,-0.032 0.295,0.01 0.401,0.121 -0.006,0.01 -0.011,0.019 -0.016,0.028 0.051,0.066 -0.009,0.062 -0.069,0.087 0.027,0.008 0.06,0.022 0.084,0.039 -0.274,0.041 0.127,0.064 0.141,0.066 -0.097,-0.018 0.403,0.105 0.59,0.162 0.002,0.005 0.003,0.01 0.004,0.015 0.06,0.02 0.116,0.064 0.135,0.12 0.014,0.006 0.027,0.01 0.04,0.016 v 10e-4 c 0.018,0.029 0.032,0.06 0.043,0.093 0.037,0.03 0.045,0.064 0.016,0.096 0.023,0 0.055,0.086 0.067,0.119 -0.211,0.13 -0.212,0.203 -0.016,0.236 -0.112,0.072 -0.015,0.115 0.103,0.153 0.04,0.128 0.097,0.21 0.197,0.098 0.029,-0.018 0.059,-0.024 0.091,-0.019 h 0.001 c 0.003,0.002 0.004,0.005 0.006,0.007 0.117,-0.016 0.204,-0.013 0.294,0.011 0.034,0.002 0.095,0.022 0.102,0.029 0,0 0.01,-0.002 0.003,10e-4 0.053,-0.003 0.09,-0.007 0.136,0.021 0.071,0 0.127,0.032 0.194,0.032 0.015,0.01 0.022,0.015 0.03,0.025 0.007,-0.001 0.015,0.002 0.018,0.006 0.012,0.043 0.033,0.062 0.062,0.054 0.011,-0.001 0.018,0.006 0.024,0.018 0.042,0.12 0.123,0.186 0.264,0.152 0.126,0.077 0.229,0.174 0.309,0.292 0.033,-0.007 0.065,-0.01 0.098,-0.01 0.056,0.031 0.098,0.076 0.124,0.132 0.079,0.129 0.029,0.255 -0.115,0.311 C 1.177,-0.678 1.038,-0.613 0.867,-0.61 0.765,-0.616 0.691,-0.645 0.626,-0.718 0.54,-0.474 0.729,-0.455 0.988,-0.39 h 0.001 c 0.016,0.001 0.021,0 0.031,-0.004 H 1.021 C 1.092,-0.407 1.308,-0.45 1.213,-0.462 0.96,-0.546 1.176,-0.583 1.189,-0.587 c 0.068,-0.041 0.194,-0.242 0.362,-0.124 0.01,0.068 -0.18,0.294 -0.17,0.28 0.017,0 0.037,0 0.056,-0.001 -0.026,0.022 -0.153,0.13 -0.231,0.201 0.196,-0.046 0.671,-0.22 0.948,-0.123 0.038,0.198 -0.297,0.255 -0.432,0.304 M -8.804,-38.082 c -0.227,0.436 -0.493,1.145 -0.696,0.612 -0.257,0.123 -0.71,-0.069 -1.09,-0.137 -0.033,-0.672 0.732,-2.355 1.747,-2.168 -0.003,0.082 0.066,1.217 -0.023,1.217 0,0.002 -0.001,0.002 -0.002,0.004 10e-4,0 10e-4,0.002 0,0.002 0.022,0.117 -0.028,0.207 0.086,0.207 -10e-4,-0.002 -10e-4,-0.002 0,-0.002 0.115,0.058 0.063,0.132 -0.008,0.243 0.02,-0.032 0.045,-0.074 -0.014,0.022 m 30.923,7.26 c -0.077,0.551 -0.096,-0.207 -0.218,-0.207 -0.142,-0.34 -0.246,-0.693 -0.363,-1.053 0.235,0.415 0.461,0.793 0.581,1.249 v 10e-4 c -0.004,0.018 0,-0.015 -0.001,0.01 z m -2.376,-2.502 c 0.054,0.116 0.125,0.099 0.164,0.149 -0.031,-0.078 -0.088,-0.126 -0.164,-0.149 m 1.075,0.655 c -0.023,-0.014 -0.103,-0.063 -0.118,-0.092 0.121,0.176 0.245,0.367 0.204,0.568 -0.452,-0.301 -0.988,-0.715 -1.372,-1.119 h -0.001 c -0.096,-0.117 -0.239,-0.289 -0.105,-0.285 0.002,0 0.003,0 0.004,0.002 l 0.001,0.002 c 0.003,0 0.005,0 0.005,0.004 -0.013,-0.157 -2.81,-3.469 -3.622,-3.948 -0.693,-0.386 -1.787,-1.058 -1.947,-1.804 -0.213,-0.051 -0.522,-0.326 -0.111,-0.448 10e-4,-0.002 0,-0.002 -10e-4,-0.002 0.004,-0.095 -0.038,-0.201 -0.038,-0.31 1.591,0.967 3.059,2.135 4.364,3.463 0.963,0.98 1.884,2.599 2.708,3.511 -0.056,-0.027 -0.111,-0.051 -0.177,-0.048 0.001,-0.004 0.147,0.14 0.206,0.506 m 0.199,-0.225 c 0.004,0.004 0.01,0.014 0.012,0.019 0.004,0.004 0.009,0.01 0.013,0.014 -0.083,-0.077 -0.168,-0.172 -0.253,-0.266 0.088,0.042 0.169,0.11 0.228,0.233 m 1.04,2.277 c 0.094,0.284 -0.122,-0.236 0,0 m -5.35,-4.17 H 16.705 16.703 16.7 v -0.002 c 0,-0.002 0,-0.002 -10e-4,-0.002 -0.358,-0.24 -0.265,-0.228 -0.018,-0.222 0.354,0 0.523,0.289 0.026,0.226 m 2.571,1.987 c -0.237,-0.221 0.224,0.164 0,0 m -0.217,-0.153 c -0.399,-0.398 0.302,0.225 0,0 m 0.396,0.254 c 0.02,0 0.035,0.043 0.054,0.043 0.04,0.047 0.138,0.235 -0.008,0.121 -0.126,-0.099 -0.046,-0.09 -0.046,-0.164 m -0.992,-0.734 c 0.09,0.041 0.432,0.332 0.338,0.424 -0.121,-0.039 -0.379,-0.283 -0.338,-0.424 m 0.537,0.541 c -0.044,-0.291 0.017,0.051 0,0 m 0.282,0.275 c 0.261,0.215 -0.187,-0.14 0,0 m 0.811,0.774 h -0.002 c -0.064,-0.059 -0.181,-0.28 -0.254,-0.317 -0.066,-0.043 -0.117,-0.343 -0.117,-0.382 0.254,0.074 0.325,0.662 0.373,0.699 m 0.352,0.697 c 0,0 0,0.009 0.001,0.016 -0.128,0.048 -0.324,-0.639 -0.125,-0.307 0.086,0.082 0.109,0.143 0.124,0.291 m 0.36,0.289 c -0.158,-0.074 -0.145,-0.521 -0.206,-0.58 0.176,0.166 0.182,0.348 0.206,0.58 m -1.473,-0.406 c -0.21,-0.246 -0.319,-0.432 -0.582,-0.563 0,0.09 -0.089,-0.132 -0.089,-0.201 0,0.024 0.008,-0.008 0.008,-0.017 0.088,0.044 0.196,0 0.273,0.128 0.289,0.057 0.904,1.006 0.921,1.014 -0.217,-0.115 -0.337,-0.215 -0.531,-0.361 m -6.228,-3.281 c -0.05,0.003 -0.032,0.009 -0.105,-0.012 h -0.003 -10e-4 v -0.002 c 0.01,-0.086 -0.441,-0.147 -0.153,-0.352 -0.082,-0.039 0.697,0.301 0.262,0.366 m 10.719,8.343 c 0.036,-0.004 -0.327,0.034 -0.306,-0.414 -0.022,-0.01 0.25,0.207 0.258,0.217 0.014,-0.068 -0.256,-0.881 -0.258,-0.883 0.011,-0.017 -0.414,-0.578 -0.387,-0.824 0.06,0.104 0.107,0.145 0.188,0.221 0.242,0.334 0.656,1.402 0.505,1.683 m -4.16,-4.64 c 0.169,0 0.317,0.166 0.182,0.324 0,0 -0.361,-0.324 -0.182,-0.324 m -1.46,-1.071 c 0.083,0.061 0.37,0.227 0.296,0.227 0.169,0.119 0.302,-0.053 0.347,0.344 -0.025,-0.014 -0.839,-0.348 -0.643,-0.571 m -8.309,-3.431 c -0.243,0.099 -0.148,0.416 -0.421,0.199 0.086,-0.475 1.051,-0.621 0.78,-0.385 0.072,-0.062 -0.269,0.246 -0.359,0.186 m 0.359,-0.186 c 0.084,-0.072 -0.082,0.072 0,0 m 12.65,7.223 c -0.033,0.072 -0.022,0.148 0.032,0.23 -0.111,-0.062 -0.154,-0.193 -0.362,-0.14 -0.12,-0.186 -0.316,-0.239 -0.471,-0.367 -0.6,0.201 -0.893,-1.35 -1.182,-1.475 -0.165,0.189 -0.117,0.15 -0.151,0.332 -0.032,0.355 -0.177,0.049 -0.426,0.049 -0.066,-0.112 -0.342,-0.418 -0.355,-0.416 0.285,0.394 -0.015,0.138 -0.023,0.218 -0.092,-0.052 -0.226,-0.191 -0.231,-0.32 0.101,-0.166 0.385,-0.338 0.524,-0.24 h 0.003 v 0.004 h 10e-4 c -10e-4,0.002 0,0.002 0.002,0.002 0.06,0.045 0.217,0.158 0.051,0.012 -0.084,-0.061 -0.135,-0.149 -0.155,-0.264 0.151,0.033 0.219,-0.033 0.2,-0.199 0.964,0.466 1.109,1.144 0.885,-0.274 0.017,0.014 0.663,0.723 0.663,0.553 0.574,0.562 0.436,1.115 0.942,1.217 -0.688,-1.694 0.539,1.023 0.229,0.763 -0.142,0.178 0.132,0.272 0.063,0.498 -0.005,0.002 -0.246,-0.187 -0.239,-0.183 M 9.551,-34.943 c -0.008,-0.072 0.003,0.022 0,0 m 0,0 c 0.061,0.445 -0.283,0.092 -0.182,-0.152 0.123,-0.035 0.168,0.021 0.182,0.152 m -0.709,0.408 c 0.213,-0.257 0.6,-0.111 0.395,0.051 -0.142,0.123 -0.266,0.127 -0.395,-0.051 m 8.337,2.803 c 0.404,0.207 1.685,0.824 1.294,1.356 -0.495,-0.172 -0.461,-0.778 -1.131,-0.889 -0.783,-0.445 -0.619,-2.621 -0.524,-2.567 0.088,-0.066 0.194,0.231 0.194,-0.087 0.334,0.054 -0.067,0.978 0.197,1.156 0.08,-0.451 0.226,-0.41 0.474,-0.569 0.167,0.108 0.232,0.243 0.232,0.424 -0.262,0.332 -0.467,0.823 0.118,0.969 0.063,0.176 0.029,0.352 -0.123,0.398 -0.387,-0.496 -1.24,-0.544 -0.731,-0.191 m 1.875,0.779 c -0.027,0 -0.06,-0.109 0,0 m -0.039,-0.269 c 0.28,0.074 0.299,0.383 0.297,0.371 0.06,0.324 0.279,0.764 0.102,1.066 -0.175,-0.043 -0.16,0.065 -0.02,0.1 0.044,0.269 -0.016,0.262 -0.121,0.156 -0.234,-0.32 -0.359,-1.424 -0.219,-1.424 -0.013,-0.091 -0.026,-0.179 -0.039,-0.269 m -10.614,-2.84 c 0.028,-0.48 0.299,-0.102 0.275,-0.084 -0.024,0.014 -0.014,0.008 -10e-4,0 -0.092,0.027 -0.182,0.057 -0.274,0.084 m -0.937,1.336 c -0.156,-0.033 0.021,0.004 0,0 m 0,0 c -0.215,-0.047 -0.087,-0.32 0.048,-0.246 0.099,0.053 0.082,0.265 -0.048,0.246 m 8.904,2.484 c -0.705,0.563 -0.472,-0.074 -1.011,-0.674 -0.233,-0.66 -0.96,-1.296 -1.354,-1.81 -0.296,-0.385 -0.649,0.101 -0.743,-0.674 -0.007,-0.082 0.13,-0.592 0.209,-0.56 0,-0.012 0.243,-0.387 0.337,-0.526 0.215,0.16 0.371,0.139 0.53,0.069 0.257,0.166 0.556,0.318 0.854,0.378 0.017,-0.164 0.064,-0.154 0.155,-0.117 h 0.003 c 0.388,0.17 0.984,1.151 0.951,1.606 v 0.002 c -0.045,0.367 0.096,0.447 0.367,0.658 -0.461,0.615 0.032,0.89 0.032,1.555 0,0.16 -0.171,0.148 -0.33,0.093 M 7.4,-32.496 c 0,0.174 -0.088,0.075 -0.2,0.059 -0.098,0.02 -0.09,-0.01 -0.009,-0.068 -0.026,0.017 0.209,-0.127 0.209,0.009 m -5.062,-0.418 c -0.008,0.012 -0.005,0.008 -0.002,0.002 -0.936,1.374 -1.123,-0.558 -0.399,-0.894 0.618,0.041 0.71,0.408 0.401,0.891 0.01,-0.013 0.024,-0.035 0,10e-4 m 4.444,1.159 c 0.113,0 0.213,0.06 0.115,0.214 -0.088,0 -0.3,-0.08 -0.115,-0.214 m 9.9,3.767 c 0.052,0.184 0.03,0.305 -0.172,0.237 0,-0.002 0,-0.002 -0.002,-0.002 -0.045,-0.313 -0.564,-1.299 -0.564,-1.557 0.025,-0.098 -0.132,-0.205 -0.07,-0.402 0.032,-0.1 1.022,1.724 0.808,1.724 m -10.04,-3.377 c 0.499,-0.302 0.442,0.533 0.389,0.883 -0.148,0.076 -0.389,-0.81 -0.389,-0.883 m 11.242,3.696 c 0.013,0.013 0.061,0.031 0.061,0.035 -0.021,-0.065 -0.09,-0.059 -0.061,-0.035 m -0.106,0.433 c -0.023,-0.015 -0.03,-0.002 -0.017,0.041 0.001,0.01 0.044,0.096 0.062,0.014 0.006,-0.024 -0.01,-0.041 -0.045,-0.055 m -0.1,-0.375 c -0.111,0.018 -0.214,0.291 -0.036,0.263 -0.023,0.004 -0.073,0.013 0.002,10e-4 0.245,-0.053 0.111,0.094 0.034,-0.264 m -0.749,0.561 c 0.138,0 -0.087,-0.248 0,0 m 0.908,0.236 c 0.082,0.047 -0.645,0.231 -0.695,0.234 h -0.001 c -0.425,-0.113 -0.525,2.832 -0.995,0.225 0.007,-0.154 0.171,-0.389 0.171,-0.512 0.016,-0.06 0.049,-0.101 0.084,-0.119 h 0.001 0.003 c -0.005,0.02 0.308,-0.937 0.6,-0.754 0.029,0.028 -0.042,0.608 -0.029,0.528 0.001,0.004 0.001,0.005 -0.002,0.005 v 0.002 c 0.081,0 0.139,0.038 0.176,0.11 0,0 0.492,-0.094 0.274,-0.393 -0.241,-0.09 -0.194,-0.041 -0.166,-0.018 -0.004,-0.003 -0.007,-0.005 -0.015,-0.011 0.277,0.32 0.059,0.184 -0.097,0.277 -0.034,-0.107 -0.181,-1.056 0.122,-0.888 0.093,-0.444 0.594,-0.125 0.888,0.361 0.303,-0.44 -1.301,-0.926 -0.795,-1.596 0.145,-0.013 0.271,0.28 0.252,0.264 0.138,0.152 0.198,0.125 0.278,0.303 0.088,-0.018 0.107,-0.811 0.55,-0.368 0.059,0.088 0.062,0.5 0.027,0.475 0.084,0.014 0.053,-0.121 0.127,-0.111 0.1,0.103 0.216,1.039 -0.057,1.039 -0.132,0.133 -0.13,0.488 -0.357,0.312 0.003,0 0.155,0.987 -0.344,0.635 m -2.283,2.9 c 0.025,-0.093 0,0.002 0,0 m 0,0 c 0.009,-0.037 0.263,-0.443 0.396,-0.367 0.1,0.061 -0.002,0.432 0.027,0.537 -0.204,1.752 -0.423,0.506 -0.423,-0.17 m -29.678,11.21 c 0,0.002 -10e-4,0.002 -0.002,0.001 -0.001,0 -0.002,0 -0.001,0.002 v 0.002 c -10e-4,10e-4 -0.002,0.002 -10e-4,0.003 -0.003,0 -0.004,10e-4 -0.003,0.004 v 10e-4 c -0.002,0 -0.003,0.001 -0.003,0.002 v 10e-4 c -0.002,0 -0.002,0.001 -0.002,0.003 v 0.001 c -0.01,0.017 -0.052,-0.008 -0.037,-0.066 0.021,0.012 0.036,0.027 0.049,0.046 m -0.553,-0.705 h 0.002 c 0.115,0.182 0.581,0.743 0.508,0.816 v 10e-4 c -0.295,-0.11 -0.126,-0.1 -0.515,-0.454 -0.076,0.016 0.009,0.091 -0.047,0.127 -0.104,-0.066 -0.177,-0.155 -0.218,-0.268 -0.128,-0.111 -0.392,-0.416 -0.312,-0.602 0.297,-0.082 0.383,0.152 0.582,0.38 m 31.851,-2.218 c -0.01,0.016 -0.022,0.034 -0.03,0.046 -0.043,-0.013 -0.015,-0.031 0.03,-0.046 m -1.025,2.478 c 0.041,-0.038 0.017,-0.038 0.116,-0.169 l 0.002,-0.002 v -10e-4 c -0.038,-0.702 0.812,-1.542 1.02,-2.288 v -10e-4 c 0.125,-0.06 -0.026,-0.045 -0.113,-0.017 0.055,-0.083 0.131,-0.203 0.137,-0.208 0.018,-0.131 -0.002,-0.257 -0.063,-0.379 -0.016,0.06 -0.04,0.115 -0.073,0.168 -0.113,0.05 -0.063,-0.863 -0.067,-0.916 -0.057,-0.108 -0.132,-0.219 -0.211,-0.31 -0.238,-0.274 -0.256,-1.261 -0.503,-1.261 0,-10e-4 0,-0.002 0.001,-0.003 0,-0.005 -0.002,-0.009 -0.006,-0.013 v -0.001 c -0.037,-0.173 -0.098,-0.507 0,-0.672 0.139,-0.016 0.122,0.181 0.161,0.248 0.212,-0.086 0.297,-0.603 0.61,-0.436 0.194,0.213 -0.02,0.719 -0.029,0.878 0,0.001 0,0.002 -0.002,0.001 0,0.003 0,0.006 -0.001,0.008 0.138,0.127 0.411,0.681 0.456,0.775 0.119,0.212 0.228,0.84 0.457,0.945 v 0 c 0.191,0.335 -0.145,1.808 -0.644,2.258 -0.079,0.046 -0.404,0.281 -0.404,0.341 -0.133,0.133 -0.236,0.464 -0.18,0.399 0,-0.158 0.225,0.756 0.275,0.973 -0.041,0.109 10e-4,0.29 -0.103,0.339 -0.044,-0.031 -0.053,-0.094 -0.051,-0.158 -0.031,0.155 -0.099,0.35 -0.21,0.22 -0.006,-0.862 -0.382,-0.126 -0.785,-0.382 -0.034,-0.177 0.066,-0.199 0.21,-0.336 m 1.213,-1.359 c 0.013,-0.009 0.023,-0.027 0.035,-0.037 0.028,-0.017 0.026,-0.011 -0.035,0.037 m -25.01,13.731 c 0.026,0 0.123,0.058 0.14,0.066 0.036,0.017 -0.18,-0.086 -0.14,-0.066 m 23.032,-3.869 c 0.05,-0.113 0.121,-0.246 0.198,-0.341 l 0.004,-0.006 c -0.078,0.175 -0.202,0.469 -0.202,0.347 m 0.255,-0.418 c 0,0.001 -10e-4,0.002 -0.002,0.001 h -0.002 v 10e-4 0 c -0.005,0.002 -0.035,0.045 -0.049,0.069 0.047,-0.105 0.077,-0.167 0.053,-0.071 m -0.43,0.848 c -0.007,-0.002 -0.015,-0.002 -0.022,0 0.038,-0.157 0.264,-0.35 0.27,-0.362 0,0.097 -0.158,0.321 -0.248,0.362 m -0.236,0.302 c 0.053,-0.004 0.094,-0.002 -0.002,0.013 0.002,-0.001 0.009,-0.006 -0.006,0.012 v -0.002 c 0.002,-0.002 0.002,-0.007 0.004,-0.01 -0.002,0 -0.003,0 -0.004,0 -0.047,0.039 -0.182,0.165 -0.134,0.082 0.153,-0.238 0.162,-0.152 0.142,-0.095 m -22.334,0.431 c -0.136,0.019 -0.901,-0.052 -1.037,-0.381 -0.072,-0.121 -0.226,-0.238 -0.281,-0.384 0.303,-0.719 1.184,0.062 1.024,0.127 0.011,0.098 0.03,0.248 0.07,0.328 -0.175,0.097 0.076,0.163 0.224,0.31 m 4.316,-5.411 c 0.109,-0.088 0.578,-0.053 0.333,0.192 -0.012,0.017 -0.025,0.026 -0.043,0.025 -0.104,0.029 -0.084,-0.048 -0.175,-0.048 0.368,1.518 -0.065,-0.169 -0.115,-0.169 m 10.506,2.973 c 0.059,0.028 0.338,0.151 0.195,0.242 -0.093,0.048 -0.28,0.135 -0.381,0.03 V -5.65 C 6.806,-5.684 7.461,-5.764 7.461,-5.921 m -0.356,0.734 c -0.092,0.034 0.034,-0.012 0,0 m 0.309,0.058 v 0.002 C 7.463,-5.005 7.296,-4.779 7.236,-4.899 7.21,-4.915 7.046,-4.992 7.041,-5.002 l -0.038,-0.02 v -0.002 c 0.011,-0.012 0.011,-0.023 0,-0.034 -0.116,0.016 -0.248,-0.003 0.102,-0.129 0.059,-0.021 0.272,0.021 0.309,0.058 M 6.687,-5.175 C 6.509,-5.369 6.516,-5.2 6.352,-5.347 c 0.032,-0.229 0.217,-0.374 0.455,-0.39 0.047,0 0.132,-0.012 0.18,0.026 -0.039,0.122 0.035,0.154 0.106,0.218 v 0.001 0.001 c 0.037,0.27 -0.128,0.375 -0.406,0.316 M 3.152,-6.692 c -0.165,-0.035 0.19,0.039 0,0 M -1.67,-8.75 h 10e-4 c 0.181,0.465 0.555,0.775 0.885,1.238 0,0.098 1.654,0.627 1.123,0.748 H 0.338 0.336 0.334 c -0.21,-0.122 -0.438,-0.122 -0.654,-0.122 -0.043,-0.04 -0.071,-0.019 -0.11,-0.019 -0.127,-0.053 -0.358,-0.103 -0.447,-0.192 -0.272,-0.183 -0.535,-0.483 -0.821,-0.642 -0.343,-0.476 -0.133,-0.526 -0.191,-0.928 0.096,0 0.125,-0.052 0.219,-0.083 m 5.244,8.354 c 0,0.002 -0.002,0.002 -0.003,0.002 0.016,-0.001 0.032,0.005 0.046,0.015 C 3.6,-0.394 3.585,-0.397 3.574,-0.396 M 3.498,-0.412 C 3.48,-0.421 3.384,-0.483 3.446,-0.41 h 10e-4 c 0.06,0.015 0.077,0.014 0.051,-0.002 M 3.196,-0.175 H 3.195 c -0.015,0.005 0.065,0.008 0.038,0.008 0.017,0 0.005,-0.002 -0.037,-0.008 M 3.912,-0.431 C 3.862,-0.333 3.82,-0.519 3.804,-0.382 3.782,-0.386 3.755,-0.389 3.735,-0.39 3.666,-0.321 3.658,-0.322 3.528,-0.311 3.343,-0.511 3.405,-0.253 3.401,-0.18 3.369,-0.178 3.338,-0.172 3.309,-0.163 3.188,-0.095 2.097,0.12 2.419,-0.269 c 0.188,-0.249 0.204,-0.106 0.317,0.035 0.118,0 0.233,-0.092 0.275,-0.175 H 3.007 C 3.002,-0.406 2.998,-0.404 2.991,-0.405 2.942,-0.422 2.9,-0.467 2.889,-0.507 2.985,-0.497 3.084,-0.455 3.183,-0.434 2.806,-0.685 3.16,-0.56 3.245,-0.622 3.294,-0.617 3.346,-0.625 3.394,-0.624 h 10e-4 c 0.009,-0.001 0.571,0.169 0.517,0.193 m -7.21,-2.735 c 0.013,0.039 -0.077,-0.224 0.024,-0.007 -0.007,0.006 -0.017,0.009 -0.024,0.007 m 6.985,-2.98 c 0.088,-0.089 0.251,-0.028 0.148,0.033 -0.048,0.06 -0.227,0.099 -0.148,-0.033 m -1.823,5.664 c -0.046,0 -0.088,-0.01 -0.129,-0.03 H 1.732 c -0.018,0.004 -0.126,0.001 -0.126,0.001 0.008,-0.181 0.146,-0.321 0.356,-0.321 0.122,0 0.185,0.024 0.122,0.143 0.047,0.112 -0.283,0.207 -0.22,0.207 M 3.622,-6.136 C 2.91,-5.352 3.229,-6.404 3.25,-6.404 c 0.071,0 0.386,0.268 0.372,0.268 m -5.358,1.152 c 0.047,0 0.064,0.056 0.05,0.082 -0.001,0.002 -0.001,0.003 -0.003,0.005 -0.007,0.018 -0.008,0.038 -0.005,0.052 0.032,0.073 0.033,0.116 -0.067,0.057 0.025,0.018 0.056,0.049 0.056,0.074 -0.042,0 -0.093,-0.011 -0.13,-0.026 0.043,0.076 0.074,0.169 -0.078,0.131 -0.132,0.024 -0.166,0.024 -0.344,0.009 0.016,0.019 0.015,0.079 -0.016,0.14 -0.011,0.003 -0.008,0.012 0.003,0.022 -10e-4,0 -0.019,0.004 -0.027,0.008 0.025,0.043 -0.024,0.043 -0.066,0.036 -0.196,-0.056 -1.261,-0.693 -1.103,-0.895 0.209,-0.208 0.976,0.547 0.711,0.088 10e-4,-0.002 0,-0.002 -10e-4,-0.002 0.042,0.006 -0.204,-0.049 -0.19,-0.098 0.001,-10e-4 0.001,-0.002 0.001,-0.002 0.136,-0.025 0.126,-0.069 0.024,-0.123 0.124,-0.048 0.284,0.017 0.358,0.143 h 0.001 10e-4 c 0.048,0.105 0.227,0.381 0.329,0.314 -0.025,-0.045 0.008,-0.061 0.008,-0.105 0.031,-0.008 0.107,-0.028 0.095,-0.024 V -5.1 c 0.14,-0.004 0.279,0.038 0.393,0.116 m 1.284,-0.377 h -0.001 c -0.001,0.034 -0.017,0.045 -0.05,0.06 -0.205,-0.016 -0.325,-0.303 -0.198,-0.303 0.104,-0.111 0.193,-0.093 0.244,0.071 0.043,0.054 0.094,0.081 0.15,0.08 0.18,0.369 -0.074,0.02 -0.145,0.092 m 1.008,-0.11 C 0.494,-5.454 0.325,-5.539 0.325,-5.638 0.28,-5.853 0.746,-5.509 0.556,-5.471 m 2.563,-0.604 c 0.035,-0.075 0,0.003 0,0 m -0.64,0.673 C 2.455,-5.445 2.408,-5.472 2.389,-5.511 2.352,-5.598 2.271,-5.77 2.285,-5.839 2.296,-5.952 2.355,-6.007 2.451,-6.007 2.626,-6.144 2.818,-6.201 3.049,-6.186 h 0.003 c 0.022,0.037 0.045,0.075 0.067,0.111 0,0.267 -0.427,0.548 -0.64,0.673 m -1.97,0.125 -0.002,-10e-4 c -0.024,-0.012 -0.063,0 -0.075,-0.025 -0.014,-0.041 -0.028,-0.082 -0.044,-0.123 0.009,0.004 0.02,0.007 0.029,0.01 0.096,-0.007 0.128,0.043 0.092,0.139 M 0.124,-5.571 c 0.004,0.007 0.025,0.053 0.028,0.053 0.002,0.004 0.005,0.007 0.006,0.011 H 0.16 c -0.001,-0.002 0,-0.002 0.001,-0.002 h 0.002 0.002 c -0.001,-10e-4 0,-0.002 0.003,-10e-4 H 0.17 0.172 0.173 V -5.511 H 0.175 C 0.164,-5.533 0.111,-5.58 0.124,-5.571 m -0.07,0.25 c -0.059,0.007 -0.231,-0.166 -0.278,-0.151 -0.031,-0.003 -0.08,-0.05 -0.089,-0.058 -0.081,-0.04 -0.116,-0.102 -0.072,-0.166 0.046,-0.008 0.086,-0.002 0.123,0.019 h 0.002 c 0.06,-0.053 0.101,-0.088 0.205,-0.178 0.078,0.011 0.491,0.41 0.395,0.41 -0.007,0.004 -0.012,0.005 -0.02,0.006 -0.002,0 -0.003,0 -0.005,0.001 H 0.313 C 0.312,-5.437 0.312,-5.437 0.31,-5.437 0.278,-5.399 0.265,-5.191 0.29,-5.2 0.219,-5.235 0.144,-5.314 0.054,-5.321 m -1.733,2.316 c 0.211,0 0.028,0.049 0,0" /></g></g></g></g></svg>
